<svg id="Ebene_1" data-name="Ebene 1" xmlns="http://www.w3.org/2000/svg" xmlns:xlink="http://www.w3.org/1999/xlink" viewBox="0 0 519 415"><defs><style>.cls-1{fill:url(#Unbenannter_Verlauf_34);filter:url(#filter);}.cls-2{fill:url(#Unbenannter_Verlauf_467);filter:url(#filter-2);}</style><linearGradient id="Unbenannter_Verlauf_34" x1="352.57" y1="328.37" x2="54.73" y2="78.46" gradientUnits="userSpaceOnUse"><stop offset="0" stop-color="#ff7d00"/><stop offset="0.06" stop-color="#ff8600"/><stop offset="0.3" stop-color="#ffa300"/><stop offset="0.54" stop-color="#ffb700"/><stop offset="0.77" stop-color="#ffc400"/><stop offset="1" stop-color="#ffc800"/></linearGradient><filter id="filter" x="0" y="0" width="408" height="407" filterUnits="userSpaceOnUse"><feOffset input="SourceAlpha"/><feGaussianBlur stdDeviation="3" result="blur"/><feFlood/><feComposite operator="in" in2="blur"/><feComposite in="SourceGraphic"/></filter><radialGradient id="Unbenannter_Verlauf_467" cx="277.33" cy="302" r="179.15" gradientTransform="matrix(1, 0, 0, 0.9, -0.13, 30.6)" gradientUnits="userSpaceOnUse"><stop offset="0" stop-color="#fff"/><stop offset="1" stop-color="#f2f2f2"/></radialGradient><filter id="filter-2" x="37" y="189" width="482" height="226" filterUnits="userSpaceOnUse"><feOffset input="SourceAlpha"/><feGaussianBlur stdDeviation="3" result="blur-2"/><feFlood/><feComposite operator="in" in2="blur-2"/><feComposite in="SourceGraphic"/></filter></defs><circle class="cls-1" cx="203.65" cy="203.41" r="194.4"/><path class="cls-2" d="M509.05,343a61.9,61.9,0,0,1-61.81,62l-338.9.53c-2.09,0-4.15-.09-6.19-.29a61.9,61.9,0,1,1,15-122.87,85.15,85.15,0,0,1,117.48-36.54,103.31,103.31,0,0,1,188.82,40.09A61.93,61.93,0,0,1,509.05,343Z"/></svg>