<svg id="Ebene_1" data-name="Ebene 1" xmlns="http://www.w3.org/2000/svg" xmlns:xlink="http://www.w3.org/1999/xlink" viewBox="0 0 481 404"><defs><style>.cls-1,.cls-10,.cls-11,.cls-12,.cls-13,.cls-15,.cls-2,.cls-3,.cls-4,.cls-5,.cls-6,.cls-7,.cls-8,.cls-9{fill:#f1f4ff;}.cls-1{filter:url(#filter);}.cls-2{filter:url(#filter-2);}.cls-3{filter:url(#filter-3);}.cls-4{filter:url(#filter-4);}.cls-5{filter:url(#filter-5);}.cls-6{filter:url(#filter-6);}.cls-7{filter:url(#filter-7);}.cls-8{filter:url(#filter-8);}.cls-9{filter:url(#filter-9);}.cls-10{filter:url(#filter-10);}.cls-11{filter:url(#filter-11);}.cls-12{filter:url(#filter-12);}.cls-13{filter:url(#filter-13);}.cls-14{fill:url(#Unbenannter_Verlauf_467);filter:url(#filter-14);}.cls-15{filter:url(#filter-15);}</style><filter id="filter" x="111" y="195" width="47" height="63" filterUnits="userSpaceOnUse"><feOffset input="SourceAlpha"/><feGaussianBlur stdDeviation="3" result="blur"/><feFlood/><feComposite operator="in" in2="blur"/><feComposite in="SourceGraphic"/></filter><filter id="filter-2" x="178" y="197" width="47" height="63" filterUnits="userSpaceOnUse"><feOffset input="SourceAlpha"/><feGaussianBlur stdDeviation="3" result="blur-2"/><feFlood/><feComposite operator="in" in2="blur-2"/><feComposite in="SourceGraphic"/></filter><filter id="filter-3" x="89" y="246" width="46" height="59" filterUnits="userSpaceOnUse"><feOffset input="SourceAlpha"/><feGaussianBlur stdDeviation="3" result="blur-3"/><feFlood/><feComposite operator="in" in2="blur-3"/><feComposite in="SourceGraphic"/></filter><filter id="filter-4" x="325" y="197" width="47" height="63" filterUnits="userSpaceOnUse"><feOffset input="SourceAlpha"/><feGaussianBlur stdDeviation="3" result="blur-4"/><feFlood/><feComposite operator="in" in2="blur-4"/><feComposite in="SourceGraphic"/></filter><filter id="filter-5" x="303" y="252" width="44" height="54" filterUnits="userSpaceOnUse"><feOffset input="SourceAlpha"/><feGaussianBlur stdDeviation="3" result="blur-5"/><feFlood/><feComposite operator="in" in2="blur-5"/><feComposite in="SourceGraphic"/></filter><filter id="filter-6" x="163" y="251" width="36" height="40" filterUnits="userSpaceOnUse"><feOffset input="SourceAlpha"/><feGaussianBlur stdDeviation="3" result="blur-6"/><feFlood/><feComposite operator="in" in2="blur-6"/><feComposite in="SourceGraphic"/></filter><filter id="filter-7" x="197" y="336" width="36" height="40" filterUnits="userSpaceOnUse"><feOffset input="SourceAlpha"/><feGaussianBlur stdDeviation="3" result="blur-7"/><feFlood/><feComposite operator="in" in2="blur-7"/><feComposite in="SourceGraphic"/></filter><filter id="filter-8" x="144" y="282" width="41" height="48" filterUnits="userSpaceOnUse"><feOffset input="SourceAlpha"/><feGaussianBlur stdDeviation="3" result="blur-8"/><feFlood/><feComposite operator="in" in2="blur-8"/><feComposite in="SourceGraphic"/></filter><filter id="filter-9" x="130" y="321" width="37" height="41" filterUnits="userSpaceOnUse"><feOffset input="SourceAlpha"/><feGaussianBlur stdDeviation="3" result="blur-9"/><feFlood/><feComposite operator="in" in2="blur-9"/><feComposite in="SourceGraphic"/></filter><filter id="filter-10" x="257" y="186" width="47" height="63" filterUnits="userSpaceOnUse"><feOffset input="SourceAlpha"/><feGaussianBlur stdDeviation="3" result="blur-10"/><feFlood/><feComposite operator="in" in2="blur-10"/><feComposite in="SourceGraphic"/></filter><filter id="filter-11" x="236" y="235" width="44" height="56" filterUnits="userSpaceOnUse"><feOffset input="SourceAlpha"/><feGaussianBlur stdDeviation="3" result="blur-11"/><feFlood/><feComposite operator="in" in2="blur-11"/><feComposite in="SourceGraphic"/></filter><filter id="filter-12" x="210" y="278" width="51" height="71" filterUnits="userSpaceOnUse"><feOffset input="SourceAlpha"/><feGaussianBlur stdDeviation="3" result="blur-12"/><feFlood/><feComposite operator="in" in2="blur-12"/><feComposite in="SourceGraphic"/></filter><filter id="filter-13" x="184" y="365" width="37" height="39" filterUnits="userSpaceOnUse"><feOffset input="SourceAlpha"/><feGaussianBlur stdDeviation="3" result="blur-13"/><feFlood/><feComposite operator="in" in2="blur-13"/><feComposite in="SourceGraphic"/></filter><radialGradient id="Unbenannter_Verlauf_467" cx="240.64" cy="112.8" r="179.2" gradientTransform="matrix(1, 0, 0, 0.9, -0.16, 11.66)" gradientUnits="userSpaceOnUse"><stop offset="0" stop-color="#fff"/><stop offset="1" stop-color="#f2f2f2"/></radialGradient><filter id="filter-14" x="0" y="0" width="481" height="226" filterUnits="userSpaceOnUse"><feOffset input="SourceAlpha"/><feGaussianBlur stdDeviation="3" result="blur-14"/><feFlood/><feComposite operator="in" in2="blur-14"/><feComposite in="SourceGraphic"/></filter><filter id="filter-15" x="281" y="299" width="44" height="55" filterUnits="userSpaceOnUse"><feOffset input="SourceAlpha"/><feGaussianBlur stdDeviation="3" result="blur-15"/><feFlood/><feComposite operator="in" in2="blur-15"/><feComposite in="SourceGraphic"/></filter></defs><rect class="cls-1" x="126.76" y="203.12" width="15" height="46.78" rx="7.5" transform="matrix(0.91, 0.42, -0.42, 0.91, 108.27, -35.52)"/><rect class="cls-2" x="193.76" y="205.12" width="15" height="46.78" rx="7.5" transform="translate(115.39 -63.64) rotate(24.99)"/><rect class="cls-3" x="104.29" y="254.37" width="15" height="42.59" rx="7.5" transform="translate(126.94 -21.42) rotate(24.99)"/><rect class="cls-4" x="340.76" y="205.12" width="15" height="46.78" rx="7.5" transform="translate(129.16 -125.74) rotate(24.99)"/><rect class="cls-5" x="317.73" y="260.56" width="15" height="37.48" rx="7.5" transform="translate(148.46 -111.26) rotate(24.99)"/><rect class="cls-6" x="173.45" y="260.67" width="15" height="21.08" rx="7.5" transform="translate(131.53 -51.06) rotate(24.99)"/><rect class="cls-7" x="207.45" y="345.67" width="15" height="21.08" rx="7.5" transform="translate(170.63 -57.46) rotate(24.99)"/><rect class="cls-8" x="156.82" y="290.99" width="15" height="30.51" rx="7.5" transform="translate(144.78 -40.75) rotate(24.99)"/><rect class="cls-9" x="140.85" y="330.25" width="15" height="22.67" rx="7.5" transform="translate(158.22 -30.69) rotate(24.99)"/><rect class="cls-10" x="272.76" y="194.12" width="15" height="46.78" rx="7.5" transform="translate(118.14 -98.04) rotate(24.99)"/><rect class="cls-11" x="250.75" y="243.85" width="15" height="38.61" rx="7.5" transform="translate(135.37 -84.47) rotate(24.99)"/><rect class="cls-12" x="227.96" y="285.72" width="15" height="55.3" rx="7.5" transform="translate(154.45 -70.14) rotate(24.99)"/><rect class="cls-13" x="195.24" y="374.34" width="15" height="20.86" rx="7.5" transform="translate(181.55 -49.63) rotate(24.99)"/><path class="cls-14" d="M472,153.74a61.91,61.91,0,0,1-61.8,62l-47.31.07-16.68,0-57,.09-16.67,0-56,.09-16.68,0-51.89.08-16.68,0-60.07.09A60.25,60.25,0,0,1,65.1,216a61.9,61.9,0,0,1,6-123.5,60.2,60.2,0,0,1,9,.63A85.16,85.16,0,0,1,197.53,56.57,103.31,103.31,0,0,1,386.36,96.65,61.94,61.94,0,0,1,472,153.74Z"/><rect class="cls-15" x="295.17" y="307.2" width="15" height="38.61" rx="7.5" transform="translate(166.29 -97.31) rotate(24.99)"/></svg>