<svg id="Ebene_1" data-name="Ebene 1" xmlns="http://www.w3.org/2000/svg" xmlns:xlink="http://www.w3.org/1999/xlink" viewBox="0 0 481 396"><defs><style>.cls-1,.cls-10,.cls-11,.cls-12,.cls-13,.cls-15,.cls-2,.cls-3,.cls-4,.cls-5,.cls-6{fill:#f1f4ff;}.cls-1{filter:url(#filter);}.cls-2{filter:url(#filter-2);}.cls-3{filter:url(#filter-3);}.cls-4{filter:url(#filter-4);}.cls-5{filter:url(#filter-5);}.cls-6{filter:url(#filter-6);}.cls-7{filter:url(#filter-7);}.cls-8{fill:none;stroke:#f1f4ff;stroke-linecap:round;stroke-miterlimit:10;stroke-width:7px;}.cls-9{filter:url(#filter-8);}.cls-10{filter:url(#filter-9);}.cls-11{filter:url(#filter-10);}.cls-12{filter:url(#filter-11);}.cls-13{filter:url(#filter-12);}.cls-14{fill:url(#Unbenannter_Verlauf_467);filter:url(#filter-13);}.cls-15{filter:url(#filter-14);}.cls-16{filter:url(#filter-15);}</style><filter id="filter" x="111" y="195" width="47" height="63" filterUnits="userSpaceOnUse"><feOffset input="SourceAlpha"/><feGaussianBlur stdDeviation="3" result="blur"/><feFlood/><feComposite operator="in" in2="blur"/><feComposite in="SourceGraphic"/></filter><filter id="filter-2" x="178" y="197" width="47" height="63" filterUnits="userSpaceOnUse"><feOffset input="SourceAlpha"/><feGaussianBlur stdDeviation="3" result="blur-2"/><feFlood/><feComposite operator="in" in2="blur-2"/><feComposite in="SourceGraphic"/></filter><filter id="filter-3" x="89" y="246" width="46" height="59" filterUnits="userSpaceOnUse"><feOffset input="SourceAlpha"/><feGaussianBlur stdDeviation="3" result="blur-3"/><feFlood/><feComposite operator="in" in2="blur-3"/><feComposite in="SourceGraphic"/></filter><filter id="filter-4" x="325" y="197" width="47" height="63" filterUnits="userSpaceOnUse"><feOffset input="SourceAlpha"/><feGaussianBlur stdDeviation="3" result="blur-4"/><feFlood/><feComposite operator="in" in2="blur-4"/><feComposite in="SourceGraphic"/></filter><filter id="filter-5" x="303" y="252" width="44" height="54" filterUnits="userSpaceOnUse"><feOffset input="SourceAlpha"/><feGaussianBlur stdDeviation="3" result="blur-5"/><feFlood/><feComposite operator="in" in2="blur-5"/><feComposite in="SourceGraphic"/></filter><filter id="filter-6" x="144" y="282" width="41" height="48" filterUnits="userSpaceOnUse"><feOffset input="SourceAlpha"/><feGaussianBlur stdDeviation="3" result="blur-6"/><feFlood/><feComposite operator="in" in2="blur-6"/><feComposite in="SourceGraphic"/></filter><filter id="filter-7"><feOffset input="SourceAlpha"/><feGaussianBlur stdDeviation="3" result="blur-7"/><feFlood/><feComposite operator="in" in2="blur-7"/><feComposite in="SourceGraphic"/></filter><filter id="filter-8"><feOffset input="SourceAlpha"/><feGaussianBlur stdDeviation="3" result="blur-8"/><feFlood/><feComposite operator="in" in2="blur-8"/><feComposite in="SourceGraphic"/></filter><filter id="filter-9" x="257" y="186" width="47" height="63" filterUnits="userSpaceOnUse"><feOffset input="SourceAlpha"/><feGaussianBlur stdDeviation="3" result="blur-9"/><feFlood/><feComposite operator="in" in2="blur-9"/><feComposite in="SourceGraphic"/></filter><filter id="filter-10" x="236" y="235" width="44" height="56" filterUnits="userSpaceOnUse"><feOffset input="SourceAlpha"/><feGaussianBlur stdDeviation="3" result="blur-10"/><feFlood/><feComposite operator="in" in2="blur-10"/><feComposite in="SourceGraphic"/></filter><filter id="filter-11" x="210" y="278" width="51" height="71" filterUnits="userSpaceOnUse"><feOffset input="SourceAlpha"/><feGaussianBlur stdDeviation="3" result="blur-11"/><feFlood/><feComposite operator="in" in2="blur-11"/><feComposite in="SourceGraphic"/></filter><filter id="filter-12" x="187" y="344" width="43" height="52" filterUnits="userSpaceOnUse"><feOffset input="SourceAlpha"/><feGaussianBlur stdDeviation="3" result="blur-12"/><feFlood/><feComposite operator="in" in2="blur-12"/><feComposite in="SourceGraphic"/></filter><radialGradient id="Unbenannter_Verlauf_467" cx="240.64" cy="112.8003" r="179.2023" gradientTransform="matrix(1, -0.0016, 0.0014, 0.9, -0.1583, 11.6562)" gradientUnits="userSpaceOnUse"><stop offset="0" stop-color="#fff"/><stop offset="1" stop-color="#f2f2f2"/></radialGradient><filter id="filter-13" x="0" y="0" width="481" height="226" filterUnits="userSpaceOnUse"><feOffset input="SourceAlpha"/><feGaussianBlur stdDeviation="3" result="blur-13"/><feFlood/><feComposite operator="in" in2="blur-13"/><feComposite in="SourceGraphic"/></filter><filter id="filter-14" x="281" y="299" width="44" height="55" filterUnits="userSpaceOnUse"><feOffset input="SourceAlpha"/><feGaussianBlur stdDeviation="3" result="blur-14"/><feFlood/><feComposite operator="in" in2="blur-14"/><feComposite in="SourceGraphic"/></filter><filter id="filter-15"><feOffset input="SourceAlpha"/><feGaussianBlur stdDeviation="3" result="blur-15"/><feFlood/><feComposite operator="in" in2="blur-15"/><feComposite in="SourceGraphic"/></filter></defs><rect class="cls-1" x="126.7604" y="203.123" width="15" height="46.7774" rx="7.5" transform="matrix(0.9064, 0.4225, -0.4225, 0.9064, 108.275, -35.5153)"/><rect class="cls-2" x="193.7604" y="205.123" width="15" height="46.7774" rx="7.5" transform="translate(115.3939 -63.636) rotate(24.993)"/><rect class="cls-3" x="104.2888" y="254.3725" width="15" height="42.592" rx="7.5" transform="translate(126.9398 -21.4179) rotate(24.993)"/><rect class="cls-4" x="340.7604" y="205.123" width="15" height="46.7774" rx="7.5" transform="translate(129.1591 -125.7445) rotate(24.993)"/><rect class="cls-5" x="317.7255" y="260.5585" width="15" height="37.4753" rx="7.5" transform="translate(148.4589 -111.2567) rotate(24.993)"/><rect class="cls-6" x="156.8154" y="290.9938" width="15" height="30.5095" rx="7.5" transform="translate(144.7787 -40.7472) rotate(24.993)"/><g class="cls-7"><line class="cls-8" x1="149.3036" y1="340.6226" x2="149.3036" y2="352"/><line class="cls-8" x1="149.3033" y1="340.622" x2="139.4501" y2="346.3107"/><line class="cls-8" x1="149.3033" y1="340.622" x2="139.4501" y2="334.9333"/><line class="cls-8" x1="149.3036" y1="340.6226" x2="149.3036" y2="329.2451"/><line class="cls-8" x1="149.3032" y1="340.6223" x2="159.1564" y2="334.9336"/><line class="cls-8" x1="149.3032" y1="340.6223" x2="159.1564" y2="346.311"/></g><g class="cls-9"><line class="cls-8" x1="280.3036" y1="373.6226" x2="280.3036" y2="385"/><line class="cls-8" x1="280.3033" y1="373.622" x2="270.4501" y2="379.3107"/><line class="cls-8" x1="280.3033" y1="373.622" x2="270.4501" y2="367.9333"/><line class="cls-8" x1="280.3036" y1="373.6226" x2="280.3036" y2="362.2451"/><line class="cls-8" x1="280.3032" y1="373.6223" x2="290.1564" y2="367.9336"/><line class="cls-8" x1="280.3032" y1="373.6223" x2="290.1564" y2="379.311"/></g><rect class="cls-10" x="272.7604" y="194.123" width="15" height="46.7774" rx="7.5" transform="translate(118.1439 -98.0441) rotate(24.993)"/><rect class="cls-11" x="250.7489" y="243.8472" width="15" height="38.6054" rx="7.5" transform="translate(135.3652 -84.4705) rotate(24.993)"/><rect class="cls-12" x="227.9608" y="285.7242" width="15" height="55.2958" rx="7.5" transform="translate(154.4505 -70.1396) rotate(24.993)"/><rect class="cls-13" x="201.3965" y="352.0731" width="15" height="35.825" rx="7.5" transform="translate(175.8826 -53.6146) rotate(24.993)"/><path class="cls-14" d="M471.99,153.74a61.9147,61.9147,0,0,1-61.8,62l-47.31.07-16.68.03-56.96.09-16.67.02-55.96.09-16.68.02-51.89.08-16.68.03-60.07.09a60.2512,60.2512,0,0,1-6.19-.29,61.9,61.9,0,0,1,5.99-123.5,60.1987,60.1987,0,0,1,8.96.63A85.1578,85.1578,0,0,1,197.53,56.57,103.3117,103.3117,0,0,1,386.36,96.65a61.9388,61.9388,0,0,1,85.63,57.09Z"/><rect class="cls-15" x="295.1667" y="307.1973" width="15" height="38.6054" rx="7.5" transform="translate(166.2904 -97.3052) rotate(24.993)"/><g class="cls-16"><line class="cls-8" x1="180.3036" y1="271.6226" x2="180.3036" y2="283"/><line class="cls-8" x1="180.3033" y1="271.622" x2="170.4501" y2="277.3107"/><line class="cls-8" x1="180.3033" y1="271.622" x2="170.4501" y2="265.9333"/><line class="cls-8" x1="180.3036" y1="271.6226" x2="180.3036" y2="260.2451"/><line class="cls-8" x1="180.3032" y1="271.6223" x2="190.1564" y2="265.9336"/><line class="cls-8" x1="180.3032" y1="271.6223" x2="190.1564" y2="277.311"/></g></svg>