<svg id="Ebene_1" data-name="Ebene 1" xmlns="http://www.w3.org/2000/svg" xmlns:xlink="http://www.w3.org/1999/xlink" viewBox="0 0 481 411"><defs><style>.cls-1,.cls-2,.cls-3,.cls-4{fill:#f1f4ff;}.cls-1{filter:url(#filter);}.cls-2{filter:url(#filter-2);}.cls-3{filter:url(#filter-3);}.cls-4{filter:url(#filter-4);}.cls-5{fill:url(#Unbenannter_Verlauf_467);filter:url(#filter-5);}</style><filter id="filter" x="132" y="207" width="94" height="149" filterUnits="userSpaceOnUse"><feOffset input="SourceAlpha"/><feGaussianBlur stdDeviation="3" result="blur"/><feFlood/><feComposite operator="in" in2="blur"/><feComposite in="SourceGraphic"/></filter><filter id="filter-2" x="178" y="206" width="121" height="205" filterUnits="userSpaceOnUse"><feOffset input="SourceAlpha"/><feGaussianBlur stdDeviation="3" result="blur-2"/><feFlood/><feComposite operator="in" in2="blur-2"/><feComposite in="SourceGraphic"/></filter><filter id="filter-3" x="92" y="207" width="66" height="90" filterUnits="userSpaceOnUse"><feOffset input="SourceAlpha"/><feGaussianBlur stdDeviation="3" result="blur-3"/><feFlood/><feComposite operator="in" in2="blur-3"/><feComposite in="SourceGraphic"/></filter><filter id="filter-4" x="283" y="206" width="89" height="140" filterUnits="userSpaceOnUse"><feOffset input="SourceAlpha"/><feGaussianBlur stdDeviation="3" result="blur-4"/><feFlood/><feComposite operator="in" in2="blur-4"/><feComposite in="SourceGraphic"/></filter><radialGradient id="Unbenannter_Verlauf_467" cx="240.64" cy="112.8" r="179.2" gradientTransform="matrix(1, 0, 0, 0.9, -0.16, 11.66)" gradientUnits="userSpaceOnUse"><stop offset="0" stop-color="#fff"/><stop offset="1" stop-color="#f2f2f2"/></radialGradient><filter id="filter-5" x="0" y="0" width="481" height="226" filterUnits="userSpaceOnUse"><feOffset input="SourceAlpha"/><feGaussianBlur stdDeviation="3" result="blur-5"/><feFlood/><feComposite operator="in" in2="blur-5"/><feComposite in="SourceGraphic"/></filter></defs><path class="cls-1" d="M216.61,216l-61.2,126.61a7.5,7.5,0,1,1-13.51-6.53l58-120.06Z"/><path class="cls-2" d="M289.24,215.93,201.41,397.65a7.5,7.5,0,1,1-13.51-6.53L272.57,216Z"/><path class="cls-3" d="M148,216.14l-32.63,67.51a7.5,7.5,0,1,1-13.51-6.53l29.46-61Z"/><path class="cls-4" d="M362.88,215.81,306.41,332.65a7.5,7.5,0,1,1-13.51-6.53l53.3-110.28Z"/><path class="cls-5" d="M472,153.74a61.91,61.91,0,0,1-61.8,62l-47.31.07-16.68,0-57,.09-16.67,0-56,.09-16.68,0-51.89.08-16.68,0-60.07.09A60.25,60.25,0,0,1,65.1,216a61.9,61.9,0,0,1,6-123.5,60.2,60.2,0,0,1,9,.63A85.16,85.16,0,0,1,197.53,56.57,103.31,103.31,0,0,1,386.36,96.65,61.94,61.94,0,0,1,472,153.74Z"/></svg>