<svg id="Ebene_1" data-name="Ebene 1" xmlns="http://www.w3.org/2000/svg" xmlns:xlink="http://www.w3.org/1999/xlink" viewBox="0 0 481 411"><defs><style>.cls-1,.cls-2,.cls-3,.cls-4,.cls-7{fill:#f1f4ff;}.cls-1{filter:url(#filter);}.cls-2{filter:url(#filter-2);}.cls-3{filter:url(#filter-3);}.cls-4{filter:url(#filter-4);}.cls-5{fill:url(#Unbenannter_Verlauf_467);filter:url(#filter-5);}.cls-6{filter:url(#filter-6);}.cls-7{stroke:#f1f4ff;stroke-linecap:round;stroke-miterlimit:10;stroke-width:1.5px;}.cls-8{filter:url(#filter-7);}.cls-9{filter:url(#filter-8);}.cls-10{filter:url(#filter-9);}.cls-11{filter:url(#filter-10);}.cls-12{filter:url(#filter-11);}</style><filter id="filter" x="132" y="207" width="94" height="149" filterUnits="userSpaceOnUse"><feOffset input="SourceAlpha"/><feGaussianBlur stdDeviation="3" result="blur"/><feFlood/><feComposite operator="in" in2="blur"/><feComposite in="SourceGraphic"/></filter><filter id="filter-2" x="178" y="206" width="121" height="205" filterUnits="userSpaceOnUse"><feOffset input="SourceAlpha"/><feGaussianBlur stdDeviation="3" result="blur-2"/><feFlood/><feComposite operator="in" in2="blur-2"/><feComposite in="SourceGraphic"/></filter><filter id="filter-3" x="92" y="207" width="66" height="90" filterUnits="userSpaceOnUse"><feOffset input="SourceAlpha"/><feGaussianBlur stdDeviation="3" result="blur-3"/><feFlood/><feComposite operator="in" in2="blur-3"/><feComposite in="SourceGraphic"/></filter><filter id="filter-4" x="283" y="207.16" width="89" height="140" filterUnits="userSpaceOnUse"><feOffset input="SourceAlpha"/><feGaussianBlur stdDeviation="3" result="blur-4"/><feFlood/><feComposite operator="in" in2="blur-4"/><feComposite in="SourceGraphic"/></filter><radialGradient id="Unbenannter_Verlauf_467" cx="240.64" cy="112.8" r="179.2" gradientTransform="matrix(1, 0, 0, 0.9, -0.16, 11.66)" gradientUnits="userSpaceOnUse"><stop offset="0" stop-color="#fff"/><stop offset="1" stop-color="#f2f2f2"/></radialGradient><filter id="filter-5" x="0" y="0" width="481" height="226" filterUnits="userSpaceOnUse"><feOffset input="SourceAlpha"/><feGaussianBlur stdDeviation="3" result="blur-5"/><feFlood/><feComposite operator="in" in2="blur-5"/><feComposite in="SourceGraphic"/></filter><filter id="filter-6"><feOffset input="SourceAlpha"/><feGaussianBlur stdDeviation="6" result="blur-6"/><feFlood/><feComposite operator="in" in2="blur-6"/><feComposite in="SourceGraphic"/></filter><filter id="filter-7"><feOffset input="SourceAlpha"/><feGaussianBlur stdDeviation="6" result="blur-7"/><feFlood/><feComposite operator="in" in2="blur-7"/><feComposite in="SourceGraphic"/></filter><filter id="filter-8"><feOffset input="SourceAlpha"/><feGaussianBlur stdDeviation="6" result="blur-8"/><feFlood/><feComposite operator="in" in2="blur-8"/><feComposite in="SourceGraphic"/></filter><filter id="filter-9"><feOffset input="SourceAlpha"/><feGaussianBlur stdDeviation="6" result="blur-9"/><feFlood/><feComposite operator="in" in2="blur-9"/><feComposite in="SourceGraphic"/></filter><filter id="filter-10"><feOffset input="SourceAlpha"/><feGaussianBlur stdDeviation="6" result="blur-10"/><feFlood/><feComposite operator="in" in2="blur-10"/><feComposite in="SourceGraphic"/></filter><filter id="filter-11"><feOffset input="SourceAlpha"/><feGaussianBlur stdDeviation="6" result="blur-11"/><feFlood/><feComposite operator="in" in2="blur-11"/><feComposite in="SourceGraphic"/></filter></defs><path class="cls-1" d="M216.61,216l-61.2,126.61a7.5,7.5,0,1,1-13.51-6.53l58-120.06Z"/><path class="cls-2" d="M289.24,215.93,201.41,397.65a7.5,7.5,0,1,1-13.51-6.53L272.57,216Z"/><path class="cls-3" d="M148,216.14l-32.63,67.51a7.5,7.5,0,1,1-13.51-6.53l29.46-61Z"/><path class="cls-4" d="M362.88,217,306.41,333.81a7.5,7.5,0,1,1-13.51-6.53L346.2,217Z"/><path class="cls-5" d="M472,153.74a61.91,61.91,0,0,1-61.8,62l-47.31.07-16.68,0-57,.09-16.67,0-56,.09-16.68,0-51.89.08-16.68,0-60.07.09A60.25,60.25,0,0,1,65.1,216a61.9,61.9,0,0,1,6-123.5,60.2,60.2,0,0,1,9,.63A85.16,85.16,0,0,1,197.53,56.57,103.31,103.31,0,0,1,386.36,96.65,61.94,61.94,0,0,1,472,153.74Z"/><g class="cls-6"><g id="_Radiale_Wiederholung_" data-name="&lt;Radiale Wiederholung&gt;"><polyline class="cls-7" points="156.08 244.59 156.08 248.13 156.08 251.22 156.08 257.85"/><line class="cls-7" x1="156.08" y1="249.13" x2="152.22" y2="253.35"/><line class="cls-7" x1="156.08" y1="254.42" x2="153.68" y2="257.03"/><line class="cls-7" x1="156.08" y1="257.85" x2="154.87" y2="259.17"/><line class="cls-7" x1="156.08" y1="249.14" x2="159.94" y2="253.35"/><line class="cls-7" x1="156.08" y1="254.42" x2="158.48" y2="257.03"/><line class="cls-7" x1="156.08" y1="257.85" x2="157.3" y2="259.17"/></g><g id="_Radiale_Wiederholung_2" data-name="&lt;Radiale Wiederholung&gt;"><polyline class="cls-7" points="157.83 245.6 154.76 247.37 152.09 248.92 146.35 252.23"/><line class="cls-7" x1="153.9" y1="247.87" x2="148.32" y2="246.64"/><line class="cls-7" x1="149.32" y1="250.52" x2="145.86" y2="249.74"/><line class="cls-7" x1="146.35" y1="252.23" x2="144.59" y2="251.84"/><line class="cls-7" x1="153.89" y1="247.88" x2="152.18" y2="253.32"/><line class="cls-7" x1="149.32" y1="250.52" x2="148.26" y2="253.9"/><line class="cls-7" x1="146.35" y1="252.23" x2="145.81" y2="253.95"/></g><g id="_Radiale_Wiederholung_3" data-name="&lt;Radiale Wiederholung&gt;"><polyline class="cls-7" points="157.83 247.62 154.76 245.85 152.09 244.3 146.35 240.99"/><line class="cls-7" x1="153.9" y1="245.35" x2="152.18" y2="239.9"/><line class="cls-7" x1="149.32" y1="242.7" x2="148.26" y2="239.32"/><line class="cls-7" x1="146.35" y1="240.99" x2="145.81" y2="239.27"/><line class="cls-7" x1="153.89" y1="245.34" x2="148.32" y2="246.58"/><line class="cls-7" x1="149.32" y1="242.7" x2="145.86" y2="243.48"/><line class="cls-7" x1="146.35" y1="240.99" x2="144.59" y2="241.38"/></g><g id="_Radiale_Wiederholung_4" data-name="&lt;Radiale Wiederholung&gt;"><polyline class="cls-7" points="156.08 248.62 156.08 245.09 156.08 241.99 156.08 235.37"/><line class="cls-7" x1="156.08" y1="244.09" x2="159.94" y2="239.87"/><line class="cls-7" x1="156.08" y1="238.8" x2="158.48" y2="236.19"/><line class="cls-7" x1="156.08" y1="235.37" x2="157.3" y2="234.04"/><line class="cls-7" x1="156.08" y1="244.08" x2="152.22" y2="239.87"/><line class="cls-7" x1="156.08" y1="238.8" x2="153.68" y2="236.19"/><line class="cls-7" x1="156.08" y1="235.37" x2="154.87" y2="234.04"/></g><g id="_Radiale_Wiederholung_5" data-name="&lt;Radiale Wiederholung&gt;"><polyline class="cls-7" points="154.34 247.62 157.4 245.85 160.08 244.3 165.82 240.99"/><line class="cls-7" x1="158.26" y1="245.35" x2="163.85" y2="246.58"/><line class="cls-7" x1="162.85" y1="242.7" x2="166.31" y2="243.48"/><line class="cls-7" x1="165.82" y1="240.99" x2="167.57" y2="241.38"/><line class="cls-7" x1="158.28" y1="245.34" x2="159.99" y2="239.9"/><line class="cls-7" x1="162.85" y1="242.7" x2="163.91" y2="239.32"/><line class="cls-7" x1="165.82" y1="240.99" x2="166.36" y2="239.27"/></g><g id="_Radiale_Wiederholung_6" data-name="&lt;Radiale Wiederholung&gt;"><polyline class="cls-7" points="154.34 245.6 157.4 247.37 160.08 248.92 165.82 252.23"/><line class="cls-7" x1="158.26" y1="247.87" x2="159.99" y2="253.32"/><line class="cls-7" x1="162.85" y1="250.51" x2="163.91" y2="253.9"/><line class="cls-7" x1="165.82" y1="252.23" x2="166.36" y2="253.95"/><line class="cls-7" x1="158.28" y1="247.88" x2="163.85" y2="246.63"/><line class="cls-7" x1="162.85" y1="250.51" x2="166.31" y2="249.74"/><line class="cls-7" x1="165.82" y1="252.23" x2="167.57" y2="251.84"/></g></g><g class="cls-8"><g id="_Radiale_Wiederholung_7" data-name="&lt;Radiale Wiederholung&gt;"><polyline class="cls-7" points="132.76 299.42 132.76 302.95 132.76 306.05 132.76 312.68"/><line class="cls-7" x1="132.76" y1="303.95" x2="128.9" y2="308.17"/><line class="cls-7" x1="132.76" y1="309.24" x2="130.36" y2="311.86"/><line class="cls-7" x1="132.76" y1="312.68" x2="131.54" y2="314"/><line class="cls-7" x1="132.76" y1="303.97" x2="136.62" y2="308.17"/><line class="cls-7" x1="132.76" y1="309.24" x2="135.16" y2="311.86"/><line class="cls-7" x1="132.76" y1="312.68" x2="133.98" y2="314"/></g><g id="_Radiale_Wiederholung_8" data-name="&lt;Radiale Wiederholung&gt;"><polyline class="cls-7" points="134.5 300.43 131.44 302.2 128.76 303.74 123.02 307.06"/><line class="cls-7" x1="130.58" y1="302.69" x2="124.99" y2="301.46"/><line class="cls-7" x1="126" y1="305.34" x2="122.53" y2="304.57"/><line class="cls-7" x1="123.02" y1="307.06" x2="121.27" y2="306.66"/><line class="cls-7" x1="130.57" y1="302.7" x2="128.86" y2="308.15"/><line class="cls-7" x1="126" y1="305.34" x2="124.93" y2="308.72"/><line class="cls-7" x1="123.02" y1="307.06" x2="122.49" y2="308.77"/></g><g id="_Radiale_Wiederholung_9" data-name="&lt;Radiale Wiederholung&gt;"><polyline class="cls-7" points="134.5 302.44 131.44 300.67 128.76 299.13 123.02 295.81"/><line class="cls-7" x1="130.58" y1="300.17" x2="128.86" y2="294.72"/><line class="cls-7" x1="126" y1="297.53" x2="124.93" y2="294.14"/><line class="cls-7" x1="123.02" y1="295.81" x2="122.49" y2="294.1"/><line class="cls-7" x1="130.57" y1="300.17" x2="124.99" y2="301.41"/><line class="cls-7" x1="126" y1="297.53" x2="122.53" y2="298.3"/><line class="cls-7" x1="123.02" y1="295.81" x2="121.27" y2="296.2"/></g><g id="_Radiale_Wiederholung_10" data-name="&lt;Radiale Wiederholung&gt;"><polyline class="cls-7" points="132.76 303.45 132.76 299.91 132.76 296.82 132.76 290.19"/><line class="cls-7" x1="132.76" y1="298.92" x2="136.62" y2="294.7"/><line class="cls-7" x1="132.76" y1="293.62" x2="135.16" y2="291.01"/><line class="cls-7" x1="132.76" y1="290.19" x2="133.98" y2="288.87"/><line class="cls-7" x1="132.76" y1="298.9" x2="128.9" y2="294.7"/><line class="cls-7" x1="132.76" y1="293.62" x2="130.36" y2="291.01"/><line class="cls-7" x1="132.76" y1="290.19" x2="131.54" y2="288.87"/></g><g id="_Radiale_Wiederholung_11" data-name="&lt;Radiale Wiederholung&gt;"><polyline class="cls-7" points="131.02 302.44 134.08 300.67 136.76 299.13 142.5 295.81"/><line class="cls-7" x1="134.94" y1="300.17" x2="140.53" y2="301.41"/><line class="cls-7" x1="139.52" y1="297.53" x2="142.99" y2="298.3"/><line class="cls-7" x1="142.5" y1="295.81" x2="144.25" y2="296.2"/><line class="cls-7" x1="134.96" y1="300.17" x2="136.67" y2="294.72"/><line class="cls-7" x1="139.52" y1="297.53" x2="140.59" y2="294.14"/><line class="cls-7" x1="142.5" y1="295.81" x2="143.04" y2="294.1"/></g><g id="_Radiale_Wiederholung_12" data-name="&lt;Radiale Wiederholung&gt;"><polyline class="cls-7" points="131.02 300.43 134.08 302.19 136.76 303.74 142.5 307.06"/><line class="cls-7" x1="134.94" y1="302.69" x2="136.67" y2="308.15"/><line class="cls-7" x1="139.53" y1="305.34" x2="140.59" y2="308.72"/><line class="cls-7" x1="142.5" y1="307.05" x2="143.04" y2="308.77"/><line class="cls-7" x1="134.96" y1="302.7" x2="140.53" y2="301.46"/><line class="cls-7" x1="139.53" y1="305.34" x2="142.99" y2="304.57"/><line class="cls-7" x1="142.5" y1="307.05" x2="144.25" y2="306.66"/></g></g><g class="cls-9"><g id="_Radiale_Wiederholung_13" data-name="&lt;Radiale Wiederholung&gt;"><polyline class="cls-7" points="229.76 242.42 229.76 245.96 229.76 249.05 229.76 255.68"/><line class="cls-7" x1="229.76" y1="246.95" x2="225.9" y2="251.17"/><line class="cls-7" x1="229.76" y1="252.24" x2="227.36" y2="254.86"/><line class="cls-7" x1="229.76" y1="255.68" x2="228.54" y2="257"/><line class="cls-7" x1="229.76" y1="246.97" x2="233.62" y2="251.17"/><line class="cls-7" x1="229.76" y1="252.24" x2="232.16" y2="254.86"/><line class="cls-7" x1="229.76" y1="255.68" x2="230.98" y2="257"/></g><g id="_Radiale_Wiederholung_14" data-name="&lt;Radiale Wiederholung&gt;"><polyline class="cls-7" points="231.5 243.43 228.44 245.2 225.76 246.74 220.02 250.06"/><line class="cls-7" x1="227.58" y1="245.69" x2="221.99" y2="244.46"/><line class="cls-7" x1="223" y1="248.34" x2="219.53" y2="247.57"/><line class="cls-7" x1="220.02" y1="250.06" x2="218.27" y2="249.66"/><line class="cls-7" x1="227.57" y1="245.7" x2="225.86" y2="251.15"/><line class="cls-7" x1="223" y1="248.34" x2="221.93" y2="251.72"/><line class="cls-7" x1="220.02" y1="250.06" x2="219.49" y2="251.77"/></g><g id="_Radiale_Wiederholung_15" data-name="&lt;Radiale Wiederholung&gt;"><polyline class="cls-7" points="231.5 245.44 228.44 243.67 225.76 242.13 220.02 238.81"/><line class="cls-7" x1="227.58" y1="243.17" x2="225.86" y2="237.72"/><line class="cls-7" x1="223" y1="240.53" x2="221.93" y2="237.14"/><line class="cls-7" x1="220.02" y1="238.81" x2="219.49" y2="237.1"/><line class="cls-7" x1="227.57" y1="243.17" x2="221.99" y2="244.41"/><line class="cls-7" x1="223" y1="240.53" x2="219.53" y2="241.3"/><line class="cls-7" x1="220.02" y1="238.81" x2="218.27" y2="239.2"/></g><g id="_Radiale_Wiederholung_16" data-name="&lt;Radiale Wiederholung&gt;"><polyline class="cls-7" points="229.76 246.45 229.76 242.91 229.76 239.82 229.76 233.19"/><line class="cls-7" x1="229.76" y1="241.92" x2="233.62" y2="237.7"/><line class="cls-7" x1="229.76" y1="236.62" x2="232.16" y2="234.01"/><line class="cls-7" x1="229.76" y1="233.19" x2="230.98" y2="231.87"/><line class="cls-7" x1="229.76" y1="241.9" x2="225.9" y2="237.7"/><line class="cls-7" x1="229.76" y1="236.62" x2="227.36" y2="234.01"/><line class="cls-7" x1="229.76" y1="233.19" x2="228.54" y2="231.87"/></g><g id="_Radiale_Wiederholung_17" data-name="&lt;Radiale Wiederholung&gt;"><polyline class="cls-7" points="228.02 245.44 231.08 243.67 233.76 242.13 239.5 238.81"/><line class="cls-7" x1="231.94" y1="243.17" x2="237.53" y2="244.41"/><line class="cls-7" x1="236.52" y1="240.53" x2="239.99" y2="241.3"/><line class="cls-7" x1="239.5" y1="238.81" x2="241.25" y2="239.2"/><line class="cls-7" x1="231.96" y1="243.17" x2="233.67" y2="237.72"/><line class="cls-7" x1="236.52" y1="240.53" x2="237.59" y2="237.14"/><line class="cls-7" x1="239.5" y1="238.81" x2="240.04" y2="237.1"/></g><g id="_Radiale_Wiederholung_18" data-name="&lt;Radiale Wiederholung&gt;"><polyline class="cls-7" points="228.02 243.43 231.08 245.19 233.76 246.74 239.5 250.06"/><line class="cls-7" x1="231.94" y1="245.69" x2="233.67" y2="251.15"/><line class="cls-7" x1="236.53" y1="248.34" x2="237.59" y2="251.72"/><line class="cls-7" x1="239.5" y1="250.05" x2="240.04" y2="251.77"/><line class="cls-7" x1="231.96" y1="245.7" x2="237.53" y2="244.46"/><line class="cls-7" x1="236.53" y1="248.34" x2="239.99" y2="247.57"/><line class="cls-7" x1="239.5" y1="250.05" x2="241.25" y2="249.66"/></g></g><g class="cls-10"><g id="_Radiale_Wiederholung_19" data-name="&lt;Radiale Wiederholung&gt;"><polyline class="cls-7" points="303.76 245.42 303.76 248.96 303.76 252.05 303.76 258.68"/><line class="cls-7" x1="303.76" y1="249.95" x2="299.9" y2="254.17"/><line class="cls-7" x1="303.76" y1="255.24" x2="301.36" y2="257.86"/><line class="cls-7" x1="303.76" y1="258.68" x2="302.54" y2="260"/><line class="cls-7" x1="303.76" y1="249.97" x2="307.62" y2="254.17"/><line class="cls-7" x1="303.76" y1="255.24" x2="306.16" y2="257.86"/><line class="cls-7" x1="303.76" y1="258.68" x2="304.98" y2="260"/></g><g id="_Radiale_Wiederholung_20" data-name="&lt;Radiale Wiederholung&gt;"><polyline class="cls-7" points="305.5 246.43 302.44 248.2 299.76 249.74 294.02 253.06"/><line class="cls-7" x1="301.58" y1="248.69" x2="295.99" y2="247.46"/><line class="cls-7" x1="297" y1="251.34" x2="293.53" y2="250.57"/><line class="cls-7" x1="294.02" y1="253.06" x2="292.27" y2="252.66"/><line class="cls-7" x1="301.57" y1="248.7" x2="299.86" y2="254.15"/><line class="cls-7" x1="297" y1="251.34" x2="295.93" y2="254.72"/><line class="cls-7" x1="294.02" y1="253.06" x2="293.49" y2="254.77"/></g><g id="_Radiale_Wiederholung_21" data-name="&lt;Radiale Wiederholung&gt;"><polyline class="cls-7" points="305.5 248.44 302.44 246.67 299.76 245.13 294.02 241.81"/><line class="cls-7" x1="301.58" y1="246.17" x2="299.86" y2="240.72"/><line class="cls-7" x1="297" y1="243.53" x2="295.93" y2="240.14"/><line class="cls-7" x1="294.02" y1="241.81" x2="293.49" y2="240.1"/><line class="cls-7" x1="301.57" y1="246.17" x2="295.99" y2="247.41"/><line class="cls-7" x1="297" y1="243.53" x2="293.53" y2="244.3"/><line class="cls-7" x1="294.02" y1="241.81" x2="292.27" y2="242.2"/></g><g id="_Radiale_Wiederholung_22" data-name="&lt;Radiale Wiederholung&gt;"><polyline class="cls-7" points="303.76 249.45 303.76 245.91 303.76 242.82 303.76 236.19"/><line class="cls-7" x1="303.76" y1="244.92" x2="307.62" y2="240.7"/><line class="cls-7" x1="303.76" y1="239.62" x2="306.16" y2="237.01"/><line class="cls-7" x1="303.76" y1="236.19" x2="304.98" y2="234.87"/><line class="cls-7" x1="303.76" y1="244.9" x2="299.9" y2="240.7"/><line class="cls-7" x1="303.76" y1="239.62" x2="301.36" y2="237.01"/><line class="cls-7" x1="303.76" y1="236.19" x2="302.54" y2="234.87"/></g><g id="_Radiale_Wiederholung_23" data-name="&lt;Radiale Wiederholung&gt;"><polyline class="cls-7" points="302.02 248.44 305.08 246.67 307.76 245.13 313.5 241.81"/><line class="cls-7" x1="305.94" y1="246.17" x2="311.53" y2="247.41"/><line class="cls-7" x1="310.52" y1="243.53" x2="313.99" y2="244.3"/><line class="cls-7" x1="313.5" y1="241.81" x2="315.25" y2="242.2"/><line class="cls-7" x1="305.96" y1="246.17" x2="307.67" y2="240.72"/><line class="cls-7" x1="310.52" y1="243.53" x2="311.59" y2="240.14"/><line class="cls-7" x1="313.5" y1="241.81" x2="314.04" y2="240.1"/></g><g id="_Radiale_Wiederholung_24" data-name="&lt;Radiale Wiederholung&gt;"><polyline class="cls-7" points="302.02 246.43 305.08 248.19 307.76 249.74 313.5 253.06"/><line class="cls-7" x1="305.94" y1="248.69" x2="307.67" y2="254.15"/><line class="cls-7" x1="310.53" y1="251.34" x2="311.59" y2="254.72"/><line class="cls-7" x1="313.5" y1="253.05" x2="314.04" y2="254.77"/><line class="cls-7" x1="305.96" y1="248.7" x2="311.53" y2="247.46"/><line class="cls-7" x1="310.53" y1="251.34" x2="313.99" y2="250.57"/><line class="cls-7" x1="313.5" y1="253.05" x2="315.25" y2="252.66"/></g></g><g class="cls-11"><g id="_Radiale_Wiederholung_25" data-name="&lt;Radiale Wiederholung&gt;"><polyline class="cls-7" points="207.76 292.42 207.76 295.95 207.76 299.05 207.76 305.68"/><line class="cls-7" x1="207.76" y1="296.95" x2="203.9" y2="301.17"/><line class="cls-7" x1="207.76" y1="302.24" x2="205.36" y2="304.86"/><line class="cls-7" x1="207.76" y1="305.68" x2="206.54" y2="307"/><line class="cls-7" x1="207.76" y1="296.97" x2="211.62" y2="301.17"/><line class="cls-7" x1="207.76" y1="302.24" x2="210.16" y2="304.86"/><line class="cls-7" x1="207.76" y1="305.68" x2="208.98" y2="307"/></g><g id="_Radiale_Wiederholung_26" data-name="&lt;Radiale Wiederholung&gt;"><polyline class="cls-7" points="209.5 293.43 206.44 295.2 203.76 296.74 198.02 300.06"/><line class="cls-7" x1="205.58" y1="295.69" x2="199.99" y2="294.46"/><line class="cls-7" x1="201" y1="298.34" x2="197.53" y2="297.57"/><line class="cls-7" x1="198.02" y1="300.06" x2="196.27" y2="299.66"/><line class="cls-7" x1="205.57" y1="295.7" x2="203.86" y2="301.15"/><line class="cls-7" x1="201" y1="298.34" x2="199.93" y2="301.72"/><line class="cls-7" x1="198.02" y1="300.06" x2="197.49" y2="301.77"/></g><g id="_Radiale_Wiederholung_27" data-name="&lt;Radiale Wiederholung&gt;"><polyline class="cls-7" points="209.5 295.44 206.44 293.67 203.76 292.13 198.02 288.81"/><line class="cls-7" x1="205.58" y1="293.17" x2="203.86" y2="287.72"/><line class="cls-7" x1="201" y1="290.53" x2="199.93" y2="287.14"/><line class="cls-7" x1="198.02" y1="288.81" x2="197.49" y2="287.1"/><line class="cls-7" x1="205.57" y1="293.17" x2="199.99" y2="294.41"/><line class="cls-7" x1="201" y1="290.53" x2="197.53" y2="291.3"/><line class="cls-7" x1="198.02" y1="288.81" x2="196.27" y2="289.2"/></g><g id="_Radiale_Wiederholung_28" data-name="&lt;Radiale Wiederholung&gt;"><polyline class="cls-7" points="207.76 296.45 207.76 292.91 207.76 289.82 207.76 283.19"/><line class="cls-7" x1="207.76" y1="291.92" x2="211.62" y2="287.7"/><line class="cls-7" x1="207.76" y1="286.62" x2="210.16" y2="284.01"/><line class="cls-7" x1="207.76" y1="283.19" x2="208.98" y2="281.87"/><line class="cls-7" x1="207.76" y1="291.9" x2="203.9" y2="287.7"/><line class="cls-7" x1="207.76" y1="286.62" x2="205.36" y2="284.01"/><line class="cls-7" x1="207.76" y1="283.19" x2="206.54" y2="281.87"/></g><g id="_Radiale_Wiederholung_29" data-name="&lt;Radiale Wiederholung&gt;"><polyline class="cls-7" points="206.02 295.44 209.08 293.67 211.76 292.13 217.5 288.81"/><line class="cls-7" x1="209.94" y1="293.17" x2="215.53" y2="294.41"/><line class="cls-7" x1="214.52" y1="290.53" x2="217.99" y2="291.3"/><line class="cls-7" x1="217.5" y1="288.81" x2="219.25" y2="289.2"/><line class="cls-7" x1="209.96" y1="293.17" x2="211.67" y2="287.72"/><line class="cls-7" x1="214.52" y1="290.53" x2="215.59" y2="287.14"/><line class="cls-7" x1="217.5" y1="288.81" x2="218.04" y2="287.1"/></g><g id="_Radiale_Wiederholung_30" data-name="&lt;Radiale Wiederholung&gt;"><polyline class="cls-7" points="206.02 293.43 209.08 295.19 211.76 296.74 217.5 300.06"/><line class="cls-7" x1="209.94" y1="295.69" x2="211.67" y2="301.15"/><line class="cls-7" x1="214.53" y1="298.34" x2="215.59" y2="301.72"/><line class="cls-7" x1="217.5" y1="300.05" x2="218.04" y2="301.77"/><line class="cls-7" x1="209.96" y1="295.7" x2="215.53" y2="294.46"/><line class="cls-7" x1="214.53" y1="298.34" x2="217.99" y2="297.57"/><line class="cls-7" x1="217.5" y1="300.05" x2="219.25" y2="299.66"/></g></g><g class="cls-12"><g id="_Radiale_Wiederholung_31" data-name="&lt;Radiale Wiederholung&gt;"><polyline class="cls-7" points="178.76 353.42 178.76 356.95 178.76 360.05 178.76 366.68"/><line class="cls-7" x1="178.76" y1="357.95" x2="174.9" y2="362.17"/><line class="cls-7" x1="178.76" y1="363.24" x2="176.36" y2="365.86"/><line class="cls-7" x1="178.76" y1="366.68" x2="177.54" y2="368"/><line class="cls-7" x1="178.76" y1="357.97" x2="182.62" y2="362.17"/><line class="cls-7" x1="178.76" y1="363.24" x2="181.16" y2="365.86"/><line class="cls-7" x1="178.76" y1="366.68" x2="179.98" y2="368"/></g><g id="_Radiale_Wiederholung_32" data-name="&lt;Radiale Wiederholung&gt;"><polyline class="cls-7" points="180.5 354.43 177.44 356.2 174.76 357.74 169.02 361.06"/><line class="cls-7" x1="176.58" y1="356.69" x2="170.99" y2="355.46"/><line class="cls-7" x1="172" y1="359.34" x2="168.53" y2="358.57"/><line class="cls-7" x1="169.02" y1="361.06" x2="167.27" y2="360.66"/><line class="cls-7" x1="176.57" y1="356.7" x2="174.86" y2="362.15"/><line class="cls-7" x1="172" y1="359.34" x2="170.93" y2="362.72"/><line class="cls-7" x1="169.02" y1="361.06" x2="168.49" y2="362.77"/></g><g id="_Radiale_Wiederholung_33" data-name="&lt;Radiale Wiederholung&gt;"><polyline class="cls-7" points="180.5 356.44 177.44 354.67 174.76 353.13 169.02 349.81"/><line class="cls-7" x1="176.58" y1="354.17" x2="174.86" y2="348.72"/><line class="cls-7" x1="172" y1="351.53" x2="170.93" y2="348.14"/><line class="cls-7" x1="169.02" y1="349.81" x2="168.49" y2="348.1"/><line class="cls-7" x1="176.57" y1="354.17" x2="170.99" y2="355.41"/><line class="cls-7" x1="172" y1="351.53" x2="168.53" y2="352.3"/><line class="cls-7" x1="169.02" y1="349.81" x2="167.27" y2="350.2"/></g><g id="_Radiale_Wiederholung_34" data-name="&lt;Radiale Wiederholung&gt;"><polyline class="cls-7" points="178.76 357.45 178.76 353.91 178.76 350.82 178.76 344.19"/><line class="cls-7" x1="178.76" y1="352.92" x2="182.62" y2="348.7"/><line class="cls-7" x1="178.76" y1="347.62" x2="181.16" y2="345.01"/><line class="cls-7" x1="178.76" y1="344.19" x2="179.98" y2="342.87"/><line class="cls-7" x1="178.76" y1="352.9" x2="174.9" y2="348.7"/><line class="cls-7" x1="178.76" y1="347.62" x2="176.36" y2="345.01"/><line class="cls-7" x1="178.76" y1="344.19" x2="177.54" y2="342.87"/></g><g id="_Radiale_Wiederholung_35" data-name="&lt;Radiale Wiederholung&gt;"><polyline class="cls-7" points="177.02 356.44 180.08 354.67 182.76 353.13 188.5 349.81"/><line class="cls-7" x1="180.94" y1="354.17" x2="186.53" y2="355.41"/><line class="cls-7" x1="185.52" y1="351.53" x2="188.99" y2="352.3"/><line class="cls-7" x1="188.5" y1="349.81" x2="190.25" y2="350.2"/><line class="cls-7" x1="180.96" y1="354.17" x2="182.67" y2="348.72"/><line class="cls-7" x1="185.52" y1="351.53" x2="186.59" y2="348.14"/><line class="cls-7" x1="188.5" y1="349.81" x2="189.04" y2="348.1"/></g><g id="_Radiale_Wiederholung_36" data-name="&lt;Radiale Wiederholung&gt;"><polyline class="cls-7" points="177.02 354.43 180.08 356.19 182.76 357.74 188.5 361.06"/><line class="cls-7" x1="180.94" y1="356.69" x2="182.67" y2="362.15"/><line class="cls-7" x1="185.53" y1="359.34" x2="186.59" y2="362.72"/><line class="cls-7" x1="188.5" y1="361.05" x2="189.04" y2="362.77"/><line class="cls-7" x1="180.96" y1="356.7" x2="186.53" y2="355.46"/><line class="cls-7" x1="185.53" y1="359.34" x2="188.99" y2="358.57"/><line class="cls-7" x1="188.5" y1="361.05" x2="190.25" y2="360.66"/></g></g></svg>