<svg id="Ebene_1" data-name="Ebene 1" xmlns="http://www.w3.org/2000/svg" xmlns:xlink="http://www.w3.org/1999/xlink" viewBox="0 0 481 397.7"><defs><style>.cls-1{filter:url(#filter);}.cls-2{fill:#f1f4ff;stroke:#f1f4ff;stroke-linecap:round;stroke-miterlimit:10;stroke-width:2px;}.cls-3{filter:url(#filter-2);}.cls-4{filter:url(#filter-3);}.cls-5{filter:url(#filter-4);}.cls-6{filter:url(#filter-5);}.cls-7{filter:url(#filter-6);}.cls-8{filter:url(#filter-7);}.cls-9{fill:url(#Unbenannter_Verlauf_467);filter:url(#filter-8);}</style><filter id="filter"><feOffset input="SourceAlpha"/><feGaussianBlur stdDeviation="6" result="blur"/><feFlood/><feComposite operator="in" in2="blur"/><feComposite in="SourceGraphic"/></filter><filter id="filter-2"><feOffset input="SourceAlpha"/><feGaussianBlur stdDeviation="6" result="blur-2"/><feFlood/><feComposite operator="in" in2="blur-2"/><feComposite in="SourceGraphic"/></filter><filter id="filter-3"><feOffset input="SourceAlpha"/><feGaussianBlur stdDeviation="6" result="blur-3"/><feFlood/><feComposite operator="in" in2="blur-3"/><feComposite in="SourceGraphic"/></filter><filter id="filter-4"><feOffset input="SourceAlpha"/><feGaussianBlur stdDeviation="6" result="blur-4"/><feFlood/><feComposite operator="in" in2="blur-4"/><feComposite in="SourceGraphic"/></filter><filter id="filter-5"><feOffset input="SourceAlpha"/><feGaussianBlur stdDeviation="6" result="blur-5"/><feFlood/><feComposite operator="in" in2="blur-5"/><feComposite in="SourceGraphic"/></filter><filter id="filter-6"><feOffset input="SourceAlpha"/><feGaussianBlur stdDeviation="6" result="blur-6"/><feFlood/><feComposite operator="in" in2="blur-6"/><feComposite in="SourceGraphic"/></filter><filter id="filter-7"><feOffset input="SourceAlpha"/><feGaussianBlur stdDeviation="6" result="blur-7"/><feFlood/><feComposite operator="in" in2="blur-7"/><feComposite in="SourceGraphic"/></filter><radialGradient id="Unbenannter_Verlauf_467" cx="240.64" cy="112.8" r="179.2" gradientTransform="matrix(1, 0, 0, 0.9, -0.16, 11.66)" gradientUnits="userSpaceOnUse"><stop offset="0" stop-color="#fff"/><stop offset="1" stop-color="#f2f2f2"/></radialGradient><filter id="filter-8" x="0" y="0" width="481" height="226" filterUnits="userSpaceOnUse"><feOffset input="SourceAlpha"/><feGaussianBlur stdDeviation="3" result="blur-8"/><feFlood/><feComposite operator="in" in2="blur-8"/><feComposite in="SourceGraphic"/></filter></defs><g class="cls-1"><g id="_Radiale_Wiederholung_" data-name="&lt;Radiale Wiederholung&gt;"><polyline class="cls-2" points="152.3 221.89 152.3 228.88 152.3 234.99 152.3 248.08"/><line class="cls-2" x1="152.3" y1="230.85" x2="144.67" y2="239.18"/><line class="cls-2" x1="152.3" y1="241.3" x2="147.56" y2="246.46"/><line class="cls-2" x1="152.3" y1="248.08" x2="149.89" y2="250.7"/><line class="cls-2" x1="152.3" y1="230.88" x2="159.92" y2="239.18"/><line class="cls-2" x1="152.3" y1="241.3" x2="157.04" y2="246.46"/><line class="cls-2" x1="152.3" y1="248.08" x2="154.7" y2="250.7"/></g><g id="_Radiale_Wiederholung_2" data-name="&lt;Radiale Wiederholung&gt;"><polyline class="cls-2" points="155.74 223.88 149.69 227.38 144.4 230.43 133.06 236.98"/><line class="cls-2" x1="147.99" y1="228.36" x2="136.95" y2="225.92"/><line class="cls-2" x1="138.93" y1="233.59" x2="132.09" y2="232.06"/><line class="cls-2" x1="133.06" y1="236.98" x2="129.59" y2="236.2"/><line class="cls-2" x1="147.96" y1="228.38" x2="144.58" y2="239.14"/><line class="cls-2" x1="138.93" y1="233.59" x2="136.83" y2="240.27"/><line class="cls-2" x1="133.06" y1="236.98" x2="131.99" y2="240.37"/></g><g id="_Radiale_Wiederholung_3" data-name="&lt;Radiale Wiederholung&gt;"><polyline class="cls-2" points="155.74 227.86 149.69 224.37 144.4 221.31 133.06 214.76"/><line class="cls-2" x1="147.99" y1="223.38" x2="144.58" y2="212.61"/><line class="cls-2" x1="138.93" y1="218.15" x2="136.83" y2="211.47"/><line class="cls-2" x1="133.06" y1="214.77" x2="132" y2="211.37"/><line class="cls-2" x1="147.96" y1="223.37" x2="136.95" y2="225.82"/><line class="cls-2" x1="138.93" y1="218.15" x2="132.09" y2="219.68"/><line class="cls-2" x1="133.06" y1="214.77" x2="129.59" y2="215.54"/></g><g id="_Radiale_Wiederholung_4" data-name="&lt;Radiale Wiederholung&gt;"><polyline class="cls-2" points="152.29 229.85 152.29 222.87 152.29 216.75 152.29 203.66"/><line class="cls-2" x1="152.3" y1="220.89" x2="159.92" y2="212.56"/><line class="cls-2" x1="152.3" y1="210.44" x2="157.04" y2="205.28"/><line class="cls-2" x1="152.3" y1="203.66" x2="154.7" y2="201.04"/><line class="cls-2" x1="152.3" y1="220.86" x2="144.67" y2="212.56"/><line class="cls-2" x1="152.3" y1="210.44" x2="147.55" y2="205.28"/><line class="cls-2" x1="152.3" y1="203.66" x2="149.89" y2="201.04"/></g><g id="_Radiale_Wiederholung_5" data-name="&lt;Radiale Wiederholung&gt;"><polyline class="cls-2" points="148.85 227.86 154.9 224.37 160.19 221.31 171.53 214.76"/><line class="cls-2" x1="156.61" y1="223.38" x2="167.64" y2="225.82"/><line class="cls-2" x1="165.66" y1="218.15" x2="172.5" y2="219.68"/><line class="cls-2" x1="171.53" y1="214.77" x2="175" y2="215.54"/><line class="cls-2" x1="156.63" y1="223.37" x2="160.01" y2="212.61"/><line class="cls-2" x1="165.66" y1="218.15" x2="167.76" y2="211.47"/><line class="cls-2" x1="171.53" y1="214.77" x2="172.6" y2="211.37"/></g><g id="_Radiale_Wiederholung_6" data-name="&lt;Radiale Wiederholung&gt;"><polyline class="cls-2" points="148.85 223.88 154.9 227.37 160.19 230.43 171.53 236.98"/><line class="cls-2" x1="156.61" y1="228.36" x2="160.01" y2="239.13"/><line class="cls-2" x1="165.66" y1="233.59" x2="167.76" y2="240.27"/><line class="cls-2" x1="171.53" y1="236.98" x2="172.6" y2="240.37"/><line class="cls-2" x1="156.63" y1="228.37" x2="167.64" y2="225.92"/><line class="cls-2" x1="165.66" y1="233.59" x2="172.5" y2="232.06"/><line class="cls-2" x1="171.53" y1="236.98" x2="175" y2="236.2"/></g></g><g class="cls-3"><g id="_Radiale_Wiederholung_7" data-name="&lt;Radiale Wiederholung&gt;"><polyline class="cls-2" points="222.3 254.89 222.3 261.88 222.3 267.99 222.3 281.08"/><line class="cls-2" x1="222.3" y1="263.85" x2="214.67" y2="272.18"/><line class="cls-2" x1="222.3" y1="274.3" x2="217.56" y2="279.46"/><line class="cls-2" x1="222.3" y1="281.08" x2="219.89" y2="283.7"/><line class="cls-2" x1="222.3" y1="263.88" x2="229.92" y2="272.18"/><line class="cls-2" x1="222.3" y1="274.3" x2="227.04" y2="279.46"/><line class="cls-2" x1="222.3" y1="281.08" x2="224.7" y2="283.7"/></g><g id="_Radiale_Wiederholung_8" data-name="&lt;Radiale Wiederholung&gt;"><polyline class="cls-2" points="225.74 256.88 219.69 260.38 214.4 263.43 203.06 269.98"/><line class="cls-2" x1="217.99" y1="261.36" x2="206.95" y2="258.92"/><line class="cls-2" x1="208.93" y1="266.59" x2="202.09" y2="265.06"/><line class="cls-2" x1="203.06" y1="269.98" x2="199.59" y2="269.2"/><line class="cls-2" x1="217.96" y1="261.38" x2="214.58" y2="272.14"/><line class="cls-2" x1="208.93" y1="266.59" x2="206.83" y2="273.27"/><line class="cls-2" x1="203.06" y1="269.98" x2="201.99" y2="273.37"/></g><g id="_Radiale_Wiederholung_9" data-name="&lt;Radiale Wiederholung&gt;"><polyline class="cls-2" points="225.74 260.86 219.69 257.37 214.4 254.31 203.06 247.76"/><line class="cls-2" x1="217.99" y1="256.38" x2="214.58" y2="245.61"/><line class="cls-2" x1="208.93" y1="251.15" x2="206.83" y2="244.47"/><line class="cls-2" x1="203.06" y1="247.77" x2="202" y2="244.37"/><line class="cls-2" x1="217.96" y1="256.37" x2="206.95" y2="258.82"/><line class="cls-2" x1="208.93" y1="251.15" x2="202.09" y2="252.68"/><line class="cls-2" x1="203.06" y1="247.77" x2="199.59" y2="248.54"/></g><g id="_Radiale_Wiederholung_10" data-name="&lt;Radiale Wiederholung&gt;"><polyline class="cls-2" points="222.29 262.85 222.29 255.87 222.29 249.75 222.29 236.66"/><line class="cls-2" x1="222.3" y1="253.89" x2="229.92" y2="245.56"/><line class="cls-2" x1="222.3" y1="243.44" x2="227.04" y2="238.28"/><line class="cls-2" x1="222.3" y1="236.66" x2="224.7" y2="234.04"/><line class="cls-2" x1="222.3" y1="253.86" x2="214.67" y2="245.56"/><line class="cls-2" x1="222.3" y1="243.44" x2="217.55" y2="238.28"/><line class="cls-2" x1="222.3" y1="236.66" x2="219.89" y2="234.04"/></g><g id="_Radiale_Wiederholung_11" data-name="&lt;Radiale Wiederholung&gt;"><polyline class="cls-2" points="218.85 260.86 224.9 257.37 230.19 254.31 241.53 247.76"/><line class="cls-2" x1="226.61" y1="256.38" x2="237.64" y2="258.82"/><line class="cls-2" x1="235.66" y1="251.15" x2="242.5" y2="252.68"/><line class="cls-2" x1="241.53" y1="247.77" x2="245" y2="248.54"/><line class="cls-2" x1="226.63" y1="256.37" x2="230.01" y2="245.61"/><line class="cls-2" x1="235.66" y1="251.15" x2="237.76" y2="244.47"/><line class="cls-2" x1="241.53" y1="247.77" x2="242.6" y2="244.37"/></g><g id="_Radiale_Wiederholung_12" data-name="&lt;Radiale Wiederholung&gt;"><polyline class="cls-2" points="218.85 256.88 224.9 260.37 230.19 263.43 241.53 269.98"/><line class="cls-2" x1="226.61" y1="261.36" x2="230.01" y2="272.13"/><line class="cls-2" x1="235.66" y1="266.59" x2="237.76" y2="273.27"/><line class="cls-2" x1="241.53" y1="269.98" x2="242.6" y2="273.37"/><line class="cls-2" x1="226.63" y1="261.37" x2="237.64" y2="258.92"/><line class="cls-2" x1="235.66" y1="266.59" x2="242.5" y2="265.06"/><line class="cls-2" x1="241.53" y1="269.98" x2="245" y2="269.2"/></g></g><g class="cls-4"><g id="_Radiale_Wiederholung_13" data-name="&lt;Radiale Wiederholung&gt;"><polyline class="cls-2" points="146.3 297.89 146.3 304.88 146.3 310.99 146.3 324.08"/><line class="cls-2" x1="146.3" y1="306.85" x2="138.67" y2="315.18"/><line class="cls-2" x1="146.3" y1="317.3" x2="141.56" y2="322.46"/><line class="cls-2" x1="146.3" y1="324.08" x2="143.89" y2="326.7"/><line class="cls-2" x1="146.3" y1="306.88" x2="153.92" y2="315.18"/><line class="cls-2" x1="146.3" y1="317.3" x2="151.04" y2="322.46"/><line class="cls-2" x1="146.3" y1="324.08" x2="148.7" y2="326.7"/></g><g id="_Radiale_Wiederholung_14" data-name="&lt;Radiale Wiederholung&gt;"><polyline class="cls-2" points="149.74 299.88 143.69 303.38 138.4 306.43 127.06 312.98"/><line class="cls-2" x1="141.99" y1="304.36" x2="130.95" y2="301.92"/><line class="cls-2" x1="132.93" y1="309.59" x2="126.09" y2="308.06"/><line class="cls-2" x1="127.06" y1="312.98" x2="123.59" y2="312.2"/><line class="cls-2" x1="141.96" y1="304.38" x2="138.58" y2="315.14"/><line class="cls-2" x1="132.93" y1="309.59" x2="130.83" y2="316.27"/><line class="cls-2" x1="127.06" y1="312.98" x2="125.99" y2="316.37"/></g><g id="_Radiale_Wiederholung_15" data-name="&lt;Radiale Wiederholung&gt;"><polyline class="cls-2" points="149.74 303.86 143.69 300.37 138.4 297.31 127.06 290.76"/><line class="cls-2" x1="141.99" y1="299.38" x2="138.58" y2="288.61"/><line class="cls-2" x1="132.93" y1="294.15" x2="130.83" y2="287.47"/><line class="cls-2" x1="127.06" y1="290.77" x2="126" y2="287.37"/><line class="cls-2" x1="141.96" y1="299.37" x2="130.95" y2="301.82"/><line class="cls-2" x1="132.93" y1="294.15" x2="126.09" y2="295.68"/><line class="cls-2" x1="127.06" y1="290.77" x2="123.59" y2="291.54"/></g><g id="_Radiale_Wiederholung_16" data-name="&lt;Radiale Wiederholung&gt;"><polyline class="cls-2" points="146.29 305.85 146.29 298.87 146.29 292.75 146.29 279.66"/><line class="cls-2" x1="146.3" y1="296.89" x2="153.92" y2="288.56"/><line class="cls-2" x1="146.3" y1="286.44" x2="151.04" y2="281.28"/><line class="cls-2" x1="146.3" y1="279.66" x2="148.7" y2="277.04"/><line class="cls-2" x1="146.3" y1="296.86" x2="138.67" y2="288.56"/><line class="cls-2" x1="146.3" y1="286.44" x2="141.55" y2="281.28"/><line class="cls-2" x1="146.3" y1="279.66" x2="143.89" y2="277.04"/></g><g id="_Radiale_Wiederholung_17" data-name="&lt;Radiale Wiederholung&gt;"><polyline class="cls-2" points="142.85 303.86 148.9 300.37 154.19 297.31 165.53 290.76"/><line class="cls-2" x1="150.61" y1="299.38" x2="161.64" y2="301.82"/><line class="cls-2" x1="159.66" y1="294.15" x2="166.5" y2="295.68"/><line class="cls-2" x1="165.53" y1="290.77" x2="169" y2="291.54"/><line class="cls-2" x1="150.63" y1="299.37" x2="154.01" y2="288.61"/><line class="cls-2" x1="159.66" y1="294.15" x2="161.76" y2="287.47"/><line class="cls-2" x1="165.53" y1="290.77" x2="166.6" y2="287.37"/></g><g id="_Radiale_Wiederholung_18" data-name="&lt;Radiale Wiederholung&gt;"><polyline class="cls-2" points="142.85 299.88 148.9 303.37 154.19 306.43 165.53 312.98"/><line class="cls-2" x1="150.61" y1="304.36" x2="154.01" y2="315.13"/><line class="cls-2" x1="159.66" y1="309.59" x2="161.76" y2="316.27"/><line class="cls-2" x1="165.53" y1="312.98" x2="166.6" y2="316.37"/><line class="cls-2" x1="150.63" y1="304.37" x2="161.64" y2="301.92"/><line class="cls-2" x1="159.66" y1="309.59" x2="166.5" y2="308.06"/><line class="cls-2" x1="165.53" y1="312.98" x2="169" y2="312.2"/></g></g><g class="cls-5"><g id="_Radiale_Wiederholung_19" data-name="&lt;Radiale Wiederholung&gt;"><polyline class="cls-2" points="147.3 367.89 147.3 374.88 147.3 380.99 147.3 394.08"/><line class="cls-2" x1="147.3" y1="376.85" x2="139.67" y2="385.18"/><line class="cls-2" x1="147.3" y1="387.3" x2="142.56" y2="392.46"/><line class="cls-2" x1="147.3" y1="394.08" x2="144.89" y2="396.7"/><line class="cls-2" x1="147.3" y1="376.88" x2="154.92" y2="385.18"/><line class="cls-2" x1="147.3" y1="387.3" x2="152.04" y2="392.46"/><line class="cls-2" x1="147.3" y1="394.08" x2="149.7" y2="396.7"/></g><g id="_Radiale_Wiederholung_20" data-name="&lt;Radiale Wiederholung&gt;"><polyline class="cls-2" points="150.74 369.88 144.69 373.38 139.4 376.43 128.06 382.98"/><line class="cls-2" x1="142.99" y1="374.36" x2="131.95" y2="371.92"/><line class="cls-2" x1="133.93" y1="379.59" x2="127.09" y2="378.06"/><line class="cls-2" x1="128.06" y1="382.98" x2="124.59" y2="382.2"/><line class="cls-2" x1="142.96" y1="374.38" x2="139.58" y2="385.14"/><line class="cls-2" x1="133.93" y1="379.59" x2="131.83" y2="386.27"/><line class="cls-2" x1="128.06" y1="382.98" x2="126.99" y2="386.37"/></g><g id="_Radiale_Wiederholung_21" data-name="&lt;Radiale Wiederholung&gt;"><polyline class="cls-2" points="150.74 373.86 144.69 370.37 139.4 367.31 128.06 360.76"/><line class="cls-2" x1="142.99" y1="369.38" x2="139.58" y2="358.61"/><line class="cls-2" x1="133.93" y1="364.15" x2="131.83" y2="357.47"/><line class="cls-2" x1="128.06" y1="360.77" x2="127" y2="357.37"/><line class="cls-2" x1="142.96" y1="369.37" x2="131.95" y2="371.82"/><line class="cls-2" x1="133.93" y1="364.15" x2="127.09" y2="365.68"/><line class="cls-2" x1="128.06" y1="360.77" x2="124.59" y2="361.54"/></g><g id="_Radiale_Wiederholung_22" data-name="&lt;Radiale Wiederholung&gt;"><polyline class="cls-2" points="147.29 375.85 147.29 368.87 147.29 362.75 147.29 349.66"/><line class="cls-2" x1="147.3" y1="366.89" x2="154.92" y2="358.56"/><line class="cls-2" x1="147.3" y1="356.44" x2="152.04" y2="351.28"/><line class="cls-2" x1="147.3" y1="349.66" x2="149.7" y2="347.04"/><line class="cls-2" x1="147.3" y1="366.86" x2="139.67" y2="358.56"/><line class="cls-2" x1="147.3" y1="356.44" x2="142.55" y2="351.28"/><line class="cls-2" x1="147.3" y1="349.66" x2="144.89" y2="347.04"/></g><g id="_Radiale_Wiederholung_23" data-name="&lt;Radiale Wiederholung&gt;"><polyline class="cls-2" points="143.85 373.86 149.9 370.37 155.19 367.31 166.53 360.76"/><line class="cls-2" x1="151.61" y1="369.38" x2="162.64" y2="371.82"/><line class="cls-2" x1="160.66" y1="364.15" x2="167.5" y2="365.68"/><line class="cls-2" x1="166.53" y1="360.77" x2="170" y2="361.54"/><line class="cls-2" x1="151.63" y1="369.37" x2="155.01" y2="358.61"/><line class="cls-2" x1="160.66" y1="364.15" x2="162.76" y2="357.47"/><line class="cls-2" x1="166.53" y1="360.77" x2="167.6" y2="357.37"/></g><g id="_Radiale_Wiederholung_24" data-name="&lt;Radiale Wiederholung&gt;"><polyline class="cls-2" points="143.85 369.88 149.9 373.37 155.19 376.43 166.53 382.98"/><line class="cls-2" x1="151.61" y1="374.36" x2="155.01" y2="385.13"/><line class="cls-2" x1="160.66" y1="379.59" x2="162.76" y2="386.27"/><line class="cls-2" x1="166.53" y1="382.98" x2="167.6" y2="386.37"/><line class="cls-2" x1="151.63" y1="374.37" x2="162.64" y2="371.92"/><line class="cls-2" x1="160.66" y1="379.59" x2="167.5" y2="378.06"/><line class="cls-2" x1="166.53" y1="382.98" x2="170" y2="382.2"/></g></g><g class="cls-6"><g id="_Radiale_Wiederholung_25" data-name="&lt;Radiale Wiederholung&gt;"><polyline class="cls-2" points="326.3 226.89 326.3 233.88 326.3 239.99 326.3 253.08"/><line class="cls-2" x1="326.3" y1="235.85" x2="318.67" y2="244.18"/><line class="cls-2" x1="326.3" y1="246.3" x2="321.56" y2="251.46"/><line class="cls-2" x1="326.3" y1="253.08" x2="323.89" y2="255.7"/><line class="cls-2" x1="326.3" y1="235.88" x2="333.92" y2="244.18"/><line class="cls-2" x1="326.3" y1="246.3" x2="331.04" y2="251.46"/><line class="cls-2" x1="326.3" y1="253.08" x2="328.7" y2="255.7"/></g><g id="_Radiale_Wiederholung_26" data-name="&lt;Radiale Wiederholung&gt;"><polyline class="cls-2" points="329.74 228.88 323.69 232.38 318.4 235.43 307.06 241.98"/><line class="cls-2" x1="321.99" y1="233.36" x2="310.95" y2="230.92"/><line class="cls-2" x1="312.93" y1="238.59" x2="306.09" y2="237.06"/><line class="cls-2" x1="307.06" y1="241.98" x2="303.59" y2="241.2"/><line class="cls-2" x1="321.96" y1="233.38" x2="318.58" y2="244.14"/><line class="cls-2" x1="312.93" y1="238.59" x2="310.83" y2="245.27"/><line class="cls-2" x1="307.06" y1="241.98" x2="305.99" y2="245.37"/></g><g id="_Radiale_Wiederholung_27" data-name="&lt;Radiale Wiederholung&gt;"><polyline class="cls-2" points="329.74 232.86 323.69 229.37 318.4 226.31 307.06 219.76"/><line class="cls-2" x1="321.99" y1="228.38" x2="318.58" y2="217.61"/><line class="cls-2" x1="312.93" y1="223.15" x2="310.83" y2="216.47"/><line class="cls-2" x1="307.06" y1="219.77" x2="306" y2="216.37"/><line class="cls-2" x1="321.96" y1="228.37" x2="310.95" y2="230.82"/><line class="cls-2" x1="312.93" y1="223.15" x2="306.09" y2="224.68"/><line class="cls-2" x1="307.06" y1="219.77" x2="303.59" y2="220.54"/></g><g id="_Radiale_Wiederholung_28" data-name="&lt;Radiale Wiederholung&gt;"><polyline class="cls-2" points="326.3 234.85 326.3 227.87 326.3 221.75 326.3 208.66"/><line class="cls-2" x1="326.3" y1="225.89" x2="333.92" y2="217.56"/><line class="cls-2" x1="326.3" y1="215.44" x2="331.04" y2="210.28"/><line class="cls-2" x1="326.3" y1="208.66" x2="328.7" y2="206.04"/><line class="cls-2" x1="326.3" y1="225.86" x2="318.67" y2="217.56"/><line class="cls-2" x1="326.3" y1="215.44" x2="321.55" y2="210.28"/><line class="cls-2" x1="326.3" y1="208.66" x2="323.89" y2="206.04"/></g><g id="_Radiale_Wiederholung_29" data-name="&lt;Radiale Wiederholung&gt;"><polyline class="cls-2" points="322.85 232.86 328.9 229.37 334.19 226.31 345.53 219.76"/><line class="cls-2" x1="330.61" y1="228.38" x2="341.64" y2="230.82"/><line class="cls-2" x1="339.66" y1="223.15" x2="346.5" y2="224.68"/><line class="cls-2" x1="345.53" y1="219.77" x2="349" y2="220.54"/><line class="cls-2" x1="330.63" y1="228.37" x2="334.01" y2="217.61"/><line class="cls-2" x1="339.66" y1="223.15" x2="341.76" y2="216.47"/><line class="cls-2" x1="345.53" y1="219.77" x2="346.6" y2="216.37"/></g><g id="_Radiale_Wiederholung_30" data-name="&lt;Radiale Wiederholung&gt;"><polyline class="cls-2" points="322.85 228.88 328.9 232.37 334.19 235.43 345.53 241.98"/><line class="cls-2" x1="330.61" y1="233.36" x2="334.01" y2="244.13"/><line class="cls-2" x1="339.66" y1="238.59" x2="341.76" y2="245.27"/><line class="cls-2" x1="345.53" y1="241.98" x2="346.6" y2="245.37"/><line class="cls-2" x1="330.63" y1="233.37" x2="341.64" y2="230.92"/><line class="cls-2" x1="339.66" y1="238.59" x2="346.5" y2="237.06"/><line class="cls-2" x1="345.53" y1="241.98" x2="349" y2="241.2"/></g></g><g class="cls-7"><g id="_Radiale_Wiederholung_31" data-name="&lt;Radiale Wiederholung&gt;"><polyline class="cls-2" points="265.3 316.89 265.3 323.88 265.3 329.99 265.3 343.08"/><line class="cls-2" x1="265.3" y1="325.85" x2="257.67" y2="334.18"/><line class="cls-2" x1="265.3" y1="336.3" x2="260.56" y2="341.46"/><line class="cls-2" x1="265.3" y1="343.08" x2="262.89" y2="345.7"/><line class="cls-2" x1="265.3" y1="325.88" x2="272.92" y2="334.18"/><line class="cls-2" x1="265.3" y1="336.3" x2="270.04" y2="341.46"/><line class="cls-2" x1="265.3" y1="343.08" x2="267.7" y2="345.7"/></g><g id="_Radiale_Wiederholung_32" data-name="&lt;Radiale Wiederholung&gt;"><polyline class="cls-2" points="268.74 318.88 262.69 322.38 257.4 325.43 246.06 331.98"/><line class="cls-2" x1="260.99" y1="323.36" x2="249.95" y2="320.92"/><line class="cls-2" x1="251.93" y1="328.59" x2="245.09" y2="327.06"/><line class="cls-2" x1="246.06" y1="331.98" x2="242.59" y2="331.2"/><line class="cls-2" x1="260.96" y1="323.38" x2="257.58" y2="334.14"/><line class="cls-2" x1="251.93" y1="328.59" x2="249.83" y2="335.27"/><line class="cls-2" x1="246.06" y1="331.98" x2="244.99" y2="335.37"/></g><g id="_Radiale_Wiederholung_33" data-name="&lt;Radiale Wiederholung&gt;"><polyline class="cls-2" points="268.74 322.86 262.69 319.37 257.4 316.31 246.06 309.76"/><line class="cls-2" x1="260.99" y1="318.38" x2="257.58" y2="307.61"/><line class="cls-2" x1="251.93" y1="313.15" x2="249.83" y2="306.47"/><line class="cls-2" x1="246.06" y1="309.77" x2="245" y2="306.37"/><line class="cls-2" x1="260.96" y1="318.37" x2="249.95" y2="320.82"/><line class="cls-2" x1="251.93" y1="313.15" x2="245.09" y2="314.68"/><line class="cls-2" x1="246.06" y1="309.77" x2="242.59" y2="310.54"/></g><g id="_Radiale_Wiederholung_34" data-name="&lt;Radiale Wiederholung&gt;"><polyline class="cls-2" points="265.3 324.85 265.3 317.87 265.3 311.75 265.3 298.66"/><line class="cls-2" x1="265.3" y1="315.89" x2="272.92" y2="307.56"/><line class="cls-2" x1="265.3" y1="305.44" x2="270.04" y2="300.28"/><line class="cls-2" x1="265.3" y1="298.66" x2="267.7" y2="296.04"/><line class="cls-2" x1="265.3" y1="315.86" x2="257.67" y2="307.56"/><line class="cls-2" x1="265.3" y1="305.44" x2="260.55" y2="300.28"/><line class="cls-2" x1="265.3" y1="298.66" x2="262.89" y2="296.04"/></g><g id="_Radiale_Wiederholung_35" data-name="&lt;Radiale Wiederholung&gt;"><polyline class="cls-2" points="261.85 322.86 267.9 319.37 273.19 316.31 284.53 309.76"/><line class="cls-2" x1="269.61" y1="318.38" x2="280.64" y2="320.82"/><line class="cls-2" x1="278.66" y1="313.15" x2="285.5" y2="314.68"/><line class="cls-2" x1="284.53" y1="309.77" x2="288" y2="310.54"/><line class="cls-2" x1="269.63" y1="318.37" x2="273.01" y2="307.61"/><line class="cls-2" x1="278.66" y1="313.15" x2="280.76" y2="306.47"/><line class="cls-2" x1="284.53" y1="309.77" x2="285.6" y2="306.37"/></g><g id="_Radiale_Wiederholung_36" data-name="&lt;Radiale Wiederholung&gt;"><polyline class="cls-2" points="261.85 318.88 267.9 322.37 273.19 325.43 284.53 331.98"/><line class="cls-2" x1="269.61" y1="323.36" x2="273.01" y2="334.13"/><line class="cls-2" x1="278.66" y1="328.59" x2="280.76" y2="335.27"/><line class="cls-2" x1="284.53" y1="331.98" x2="285.6" y2="335.37"/><line class="cls-2" x1="269.63" y1="323.37" x2="280.64" y2="320.92"/><line class="cls-2" x1="278.66" y1="328.59" x2="285.5" y2="327.06"/><line class="cls-2" x1="284.53" y1="331.98" x2="288" y2="331.2"/></g></g><g class="cls-8"><g id="_Radiale_Wiederholung_37" data-name="&lt;Radiale Wiederholung&gt;"><polyline class="cls-2" points="336.3 349.89 336.3 356.88 336.3 362.99 336.3 376.08"/><line class="cls-2" x1="336.3" y1="358.85" x2="328.67" y2="367.18"/><line class="cls-2" x1="336.3" y1="369.3" x2="331.56" y2="374.46"/><line class="cls-2" x1="336.3" y1="376.08" x2="333.89" y2="378.7"/><line class="cls-2" x1="336.3" y1="358.88" x2="343.92" y2="367.18"/><line class="cls-2" x1="336.3" y1="369.3" x2="341.04" y2="374.46"/><line class="cls-2" x1="336.3" y1="376.08" x2="338.7" y2="378.7"/></g><g id="_Radiale_Wiederholung_38" data-name="&lt;Radiale Wiederholung&gt;"><polyline class="cls-2" points="339.74 351.88 333.69 355.38 328.4 358.43 317.06 364.98"/><line class="cls-2" x1="331.99" y1="356.36" x2="320.95" y2="353.92"/><line class="cls-2" x1="322.93" y1="361.59" x2="316.09" y2="360.06"/><line class="cls-2" x1="317.06" y1="364.98" x2="313.59" y2="364.2"/><line class="cls-2" x1="331.96" y1="356.38" x2="328.58" y2="367.14"/><line class="cls-2" x1="322.93" y1="361.59" x2="320.83" y2="368.27"/><line class="cls-2" x1="317.06" y1="364.98" x2="315.99" y2="368.37"/></g><g id="_Radiale_Wiederholung_39" data-name="&lt;Radiale Wiederholung&gt;"><polyline class="cls-2" points="339.74 355.86 333.69 352.37 328.4 349.31 317.06 342.76"/><line class="cls-2" x1="331.99" y1="351.38" x2="328.58" y2="340.61"/><line class="cls-2" x1="322.93" y1="346.15" x2="320.83" y2="339.47"/><line class="cls-2" x1="317.06" y1="342.77" x2="316" y2="339.37"/><line class="cls-2" x1="331.96" y1="351.37" x2="320.95" y2="353.82"/><line class="cls-2" x1="322.93" y1="346.15" x2="316.09" y2="347.68"/><line class="cls-2" x1="317.06" y1="342.77" x2="313.59" y2="343.54"/></g><g id="_Radiale_Wiederholung_40" data-name="&lt;Radiale Wiederholung&gt;"><polyline class="cls-2" points="336.3 357.85 336.3 350.87 336.3 344.75 336.3 331.66"/><line class="cls-2" x1="336.3" y1="348.89" x2="343.92" y2="340.56"/><line class="cls-2" x1="336.3" y1="338.44" x2="341.04" y2="333.28"/><line class="cls-2" x1="336.3" y1="331.66" x2="338.7" y2="329.04"/><line class="cls-2" x1="336.3" y1="348.86" x2="328.67" y2="340.56"/><line class="cls-2" x1="336.3" y1="338.44" x2="331.55" y2="333.28"/><line class="cls-2" x1="336.3" y1="331.66" x2="333.89" y2="329.04"/></g><g id="_Radiale_Wiederholung_41" data-name="&lt;Radiale Wiederholung&gt;"><polyline class="cls-2" points="332.85 355.86 338.9 352.37 344.19 349.31 355.53 342.76"/><line class="cls-2" x1="340.61" y1="351.38" x2="351.64" y2="353.82"/><line class="cls-2" x1="349.66" y1="346.15" x2="356.5" y2="347.68"/><line class="cls-2" x1="355.53" y1="342.77" x2="359" y2="343.54"/><line class="cls-2" x1="340.63" y1="351.37" x2="344.01" y2="340.61"/><line class="cls-2" x1="349.66" y1="346.15" x2="351.76" y2="339.47"/><line class="cls-2" x1="355.53" y1="342.77" x2="356.6" y2="339.37"/></g><g id="_Radiale_Wiederholung_42" data-name="&lt;Radiale Wiederholung&gt;"><polyline class="cls-2" points="332.85 351.88 338.9 355.37 344.19 358.43 355.53 364.98"/><line class="cls-2" x1="340.61" y1="356.36" x2="344.01" y2="367.13"/><line class="cls-2" x1="349.66" y1="361.59" x2="351.76" y2="368.27"/><line class="cls-2" x1="355.53" y1="364.98" x2="356.6" y2="368.37"/><line class="cls-2" x1="340.63" y1="356.37" x2="351.64" y2="353.92"/><line class="cls-2" x1="349.66" y1="361.59" x2="356.5" y2="360.06"/><line class="cls-2" x1="355.53" y1="364.98" x2="359" y2="364.2"/></g></g><path class="cls-9" d="M472,153.74a61.91,61.91,0,0,1-61.8,62l-47.31.07-16.68,0-57,.09-16.67,0-56,.09-16.68,0-51.89.08-16.68,0-60.07.09A60.25,60.25,0,0,1,65.1,216a61.9,61.9,0,0,1,6-123.5,60.2,60.2,0,0,1,9,.63A85.16,85.16,0,0,1,197.53,56.57,103.31,103.31,0,0,1,386.36,96.65,61.94,61.94,0,0,1,472,153.74Z"/></svg>