<svg id="Ebene_1" data-name="Ebene 1" xmlns="http://www.w3.org/2000/svg" xmlns:xlink="http://www.w3.org/1999/xlink" viewBox="0 0 481 402"><defs><style>.cls-1,.cls-2,.cls-3,.cls-4,.cls-5,.cls-6,.cls-7{fill:#f1f4ff;stroke:#f1f4ff;stroke-linecap:round;stroke-miterlimit:10;stroke-width:2px;}.cls-1{filter:url(#filter);}.cls-2{filter:url(#filter-2);}.cls-3{filter:url(#filter-3);}.cls-4{filter:url(#filter-4);}.cls-5{filter:url(#filter-5);}.cls-6{filter:url(#filter-6);}.cls-7{filter:url(#filter-7);}.cls-8{fill:url(#Unbenannter_Verlauf_467);filter:url(#filter-8);}</style><filter id="filter" x="120" y="200" width="61" height="61" filterUnits="userSpaceOnUse"><feOffset input="SourceAlpha"/><feGaussianBlur stdDeviation="3" result="blur"/><feFlood/><feComposite operator="in" in2="blur"/><feComposite in="SourceGraphic"/></filter><filter id="filter-2" x="296" y="202" width="61" height="61" filterUnits="userSpaceOnUse"><feOffset input="SourceAlpha"/><feGaussianBlur stdDeviation="3" result="blur-2"/><feFlood/><feComposite operator="in" in2="blur-2"/><feComposite in="SourceGraphic"/></filter><filter id="filter-3" x="190" y="226" width="61" height="61" filterUnits="userSpaceOnUse"><feOffset input="SourceAlpha"/><feGaussianBlur stdDeviation="3" result="blur-3"/><feFlood/><feComposite operator="in" in2="blur-3"/><feComposite in="SourceGraphic"/></filter><filter id="filter-4" x="116" y="271" width="61" height="61" filterUnits="userSpaceOnUse"><feOffset input="SourceAlpha"/><feGaussianBlur stdDeviation="3" result="blur-4"/><feFlood/><feComposite operator="in" in2="blur-4"/><feComposite in="SourceGraphic"/></filter><filter id="filter-5" x="117" y="341" width="61" height="61" filterUnits="userSpaceOnUse"><feOffset input="SourceAlpha"/><feGaussianBlur stdDeviation="3" result="blur-5"/><feFlood/><feComposite operator="in" in2="blur-5"/><feComposite in="SourceGraphic"/></filter><filter id="filter-6" x="235" y="290" width="61" height="61" filterUnits="userSpaceOnUse"><feOffset input="SourceAlpha"/><feGaussianBlur stdDeviation="3" result="blur-6"/><feFlood/><feComposite operator="in" in2="blur-6"/><feComposite in="SourceGraphic"/></filter><filter id="filter-7" x="307" y="325" width="61" height="61" filterUnits="userSpaceOnUse"><feOffset input="SourceAlpha"/><feGaussianBlur stdDeviation="3" result="blur-7"/><feFlood/><feComposite operator="in" in2="blur-7"/><feComposite in="SourceGraphic"/></filter><radialGradient id="Unbenannter_Verlauf_467" cx="240.64" cy="112.8" r="179.2" gradientTransform="matrix(1, 0, 0, 0.9, -0.16, 11.66)" gradientUnits="userSpaceOnUse"><stop offset="0" stop-color="#fff"/><stop offset="1" stop-color="#f2f2f2"/></radialGradient><filter id="filter-8" x="0" y="0" width="481" height="226" filterUnits="userSpaceOnUse"><feOffset input="SourceAlpha"/><feGaussianBlur stdDeviation="3" result="blur-8"/><feFlood/><feComposite operator="in" in2="blur-8"/><feComposite in="SourceGraphic"/></filter></defs><circle class="cls-1" cx="150.5" cy="230.5" r="20.5"/><circle class="cls-2" cx="326.5" cy="232.5" r="20.5"/><circle class="cls-3" cx="220.5" cy="256.5" r="20.5"/><circle class="cls-4" cx="146.5" cy="301.5" r="20.5"/><circle class="cls-5" cx="147.5" cy="371.5" r="20.5"/><circle class="cls-6" cx="265.5" cy="320.5" r="20.5"/><circle class="cls-7" cx="337.5" cy="355.5" r="20.5"/><path class="cls-8" d="M472,153.74a61.91,61.91,0,0,1-61.8,62l-47.31.07-16.68,0-57,.09-16.67,0-56,.09-16.68,0-51.89.08-16.68,0-60.07.09A60.25,60.25,0,0,1,65.1,216a61.9,61.9,0,0,1,6-123.5,60.2,60.2,0,0,1,9,.63A85.16,85.16,0,0,1,197.53,56.57,103.31,103.31,0,0,1,386.36,96.65,61.94,61.94,0,0,1,472,153.74Z"/></svg>