<svg id="Ebene_1" data-name="Ebene 1" xmlns="http://www.w3.org/2000/svg" xmlns:xlink="http://www.w3.org/1999/xlink" viewBox="0 0 481 405"><defs><style>.cls-1,.cls-10,.cls-11,.cls-2,.cls-3,.cls-4,.cls-5,.cls-6,.cls-7,.cls-8,.cls-9{fill:#f1f4ff;}.cls-1{filter:url(#filter);}.cls-2{filter:url(#filter-2);}.cls-3{filter:url(#filter-3);}.cls-4{filter:url(#filter-4);}.cls-5{filter:url(#filter-5);}.cls-6{filter:url(#filter-6);}.cls-7{filter:url(#filter-7);}.cls-8{filter:url(#filter-8);}.cls-9{filter:url(#filter-9);}.cls-10{filter:url(#filter-10);}.cls-11{filter:url(#filter-11);}.cls-12{fill:url(#Unbenannter_Verlauf_467);filter:url(#filter-12);}</style><filter id="filter" x="206" y="200" width="38" height="26" filterUnits="userSpaceOnUse"><feOffset input="SourceAlpha"/><feGaussianBlur stdDeviation="3" result="blur"/><feFlood/><feComposite operator="in" in2="blur"/><feComposite in="SourceGraphic"/></filter><filter id="filter-2" x="82" y="200" width="39" height="26" filterUnits="userSpaceOnUse"><feOffset input="SourceAlpha"/><feGaussianBlur stdDeviation="3" result="blur-2"/><feFlood/><feComposite operator="in" in2="blur-2"/><feComposite in="SourceGraphic"/></filter><filter id="filter-3" x="163" y="200" width="39" height="26" filterUnits="userSpaceOnUse"><feOffset input="SourceAlpha"/><feGaussianBlur stdDeviation="3" result="blur-3"/><feFlood/><feComposite operator="in" in2="blur-3"/><feComposite in="SourceGraphic"/></filter><filter id="filter-4" x="124" y="200" width="38" height="26" filterUnits="userSpaceOnUse"><feOffset input="SourceAlpha"/><feGaussianBlur stdDeviation="3" result="blur-4"/><feFlood/><feComposite operator="in" in2="blur-4"/><feComposite in="SourceGraphic"/></filter><filter id="filter-5" x="145" y="207" width="63" height="84" filterUnits="userSpaceOnUse"><feOffset input="SourceAlpha"/><feGaussianBlur stdDeviation="3" result="blur-5"/><feFlood/><feComposite operator="in" in2="blur-5"/><feComposite in="SourceGraphic"/></filter><filter id="filter-6" x="36" y="207" width="91" height="143" filterUnits="userSpaceOnUse"><feOffset input="SourceAlpha"/><feGaussianBlur stdDeviation="3" result="blur-6"/><feFlood/><feComposite operator="in" in2="blur-6"/><feComposite in="SourceGraphic"/></filter><filter id="filter-7" x="257" y="206" width="91" height="144" filterUnits="userSpaceOnUse"><feOffset input="SourceAlpha"/><feGaussianBlur stdDeviation="3" result="blur-7"/><feFlood/><feComposite operator="in" in2="blur-7"/><feComposite in="SourceGraphic"/></filter><filter id="filter-8" x="159" y="207" width="91" height="143" filterUnits="userSpaceOnUse"><feOffset input="SourceAlpha"/><feGaussianBlur stdDeviation="3" result="blur-8"/><feFlood/><feComposite operator="in" in2="blur-8"/><feComposite in="SourceGraphic"/></filter><filter id="filter-9" x="82" y="207" width="86" height="134" filterUnits="userSpaceOnUse"><feOffset input="SourceAlpha"/><feGaussianBlur stdDeviation="3" result="blur-9"/><feFlood/><feComposite operator="in" in2="blur-9"/><feComposite in="SourceGraphic"/></filter><filter id="filter-10" x="183" y="206" width="118" height="199" filterUnits="userSpaceOnUse"><feOffset input="SourceAlpha"/><feGaussianBlur stdDeviation="3" result="blur-10"/><feFlood/><feComposite operator="in" in2="blur-10"/><feComposite in="SourceGraphic"/></filter><filter id="filter-11" x="281" y="206" width="118" height="199" filterUnits="userSpaceOnUse"><feOffset input="SourceAlpha"/><feGaussianBlur stdDeviation="3" result="blur-11"/><feFlood/><feComposite operator="in" in2="blur-11"/><feComposite in="SourceGraphic"/></filter><radialGradient id="Unbenannter_Verlauf_467" cx="240.64" cy="112.8" r="179.2" gradientTransform="matrix(1, 0, 0, 0.9, -0.16, 11.66)" gradientUnits="userSpaceOnUse"><stop offset="0" stop-color="#fff"/><stop offset="1" stop-color="#f2f2f2"/></radialGradient><filter id="filter-12" x="0" y="0" width="481" height="226" filterUnits="userSpaceOnUse"><feOffset input="SourceAlpha"/><feGaussianBlur stdDeviation="3" result="blur-12"/><feFlood/><feComposite operator="in" in2="blur-12"/><feComposite in="SourceGraphic"/></filter></defs><polygon class="cls-1" points="234.61 209.98 231.69 216.02 216.61 216.04 215.01 216.04 217.93 210 234.61 209.98"/><polygon class="cls-2" points="111.61 209.98 108.6 216.2 91.92 216.23 94.93 210 111.61 209.98"/><polygon class="cls-3" points="192.04 209.97 189.09 216.08 172.41 216.1 175.36 210 192.04 209.97"/><polygon class="cls-4" points="152.88 209.97 149.9 216.14 148.04 216.14 133.22 216.17 136.2 210 152.88 209.97"/><path class="cls-5" d="M168.41,277.48A7.5,7.5,0,1,1,154.9,271l26.51-54.85,16.68,0Z"/><path class="cls-6" d="M117.6,216.2,59.41,336.59a7.5,7.5,0,1,1-13.51-6.53l55-113.83Z"/><path class="cls-7" d="M338.76,215.87,280.41,336.59a7.5,7.5,0,1,1-13.51-6.53l55.18-114.17Z"/><path class="cls-8" d="M240.69,216,182.41,336.59a7.5,7.5,0,1,1-13.51-6.53L224,216h1.6Z"/><path class="cls-9" d="M158.9,216.14,105.41,326.81a7.5,7.5,0,1,1-13.51-6.53l50.32-104.11,14.82,0Z"/><path class="cls-10" d="M291.36,215.94l-85,175.76a7.5,7.5,0,1,1-13.51-6.53L274.69,216h16.67Z"/><path class="cls-11" d="M389.43,215.78l-85,175.92a7.5,7.5,0,1,1-13.51-6.53l81.86-169.36Z"/><path class="cls-12" d="M472,153.74a61.91,61.91,0,0,1-61.8,62l-29.75,0h0l-16.67,0h-.88l-16.68,0-16.44,0-16.68,0-23.84,0H265.69l-34,.06-15.08,0H215l-15.08,0-10.84,0-16.68,0-22.51,0H148l-14.82,0h-1.86l-22.76,0-16.68,0-20.63,0A60.25,60.25,0,0,1,65.1,216a61.9,61.9,0,0,1,6-123.5,60.2,60.2,0,0,1,9,.63A85.16,85.16,0,0,1,197.53,56.57,103.31,103.31,0,0,1,386.36,96.65,61.94,61.94,0,0,1,472,153.74Z"/></svg>