<?xml version="1.0" encoding="UTF-8"?><svg id="Ebene_1" xmlns="http://www.w3.org/2000/svg" xmlns:xlink="http://www.w3.org/1999/xlink" viewBox="0 0 520 260.81"><defs><style>.cls-1{filter:url(#outer-glow-2);}.cls-1,.cls-2{fill:#333;}.cls-3{fill:none;stroke:#333;stroke-linecap:round;stroke-miterlimit:10;stroke-width:7px;}.cls-4{fill:url(#Unbenannter_Verlauf_11);filter:url(#outer-glow-1);}</style><linearGradient id="Unbenannter_Verlauf_11" x1="258.92" y1="103.77" x2="258.92" y2="244.6" gradientTransform="matrix(1, 0, 0, 1, 0, 0)" gradientUnits="userSpaceOnUse"><stop offset="0" stop-color="#f50"/><stop offset="1" stop-color="#ffc800"/></linearGradient><filter id="outer-glow-1" filterUnits="userSpaceOnUse"><feOffset dx="0" dy="0"/><feGaussianBlur result="blur" stdDeviation="3"/><feFlood flood-color="#000" flood-opacity=".5"/><feComposite in2="blur" operator="in"/><feComposite in="SourceGraphic"/></filter><filter id="outer-glow-2" filterUnits="userSpaceOnUse"><feOffset dx="0" dy="0"/><feGaussianBlur result="blur-2" stdDeviation="3"/><feFlood flood-color="#000" flood-opacity=".5"/><feComposite in2="blur-2" operator="in"/><feComposite in="SourceGraphic"/></filter></defs><path class="cls-4" d="M464.36,244.21c-13.99-1.43-29.24-2.72-45.51-3.84-46.35-3.18-101.16-5.01-159.88-4.95-59.31,.06-114.63,2.01-161.26,5.34-15.8,1.13-30.61,2.41-44.23,3.84,1.14-2.97,2.35-5.9,3.63-8.8,33.96-77.64,111.42-131.92,201.61-132.03,90.22-.11,167.83,54.03,201.99,131.63,1.29,2.9,2.49,5.83,3.64,8.81Z"/><path class="cls-1" d="M510.62,251.18c-10.56-1.74-22.54-3.35-35.79-4.83-3.05-.34-6.16-.68-9.34-1-13.99-1.43-29.24-2.72-45.51-3.84-46.35-3.18-101.16-5.01-159.88-4.95-59.31,.06-114.63,2.01-161.26,5.34-15.8,1.13-30.61,2.41-44.23,3.84-3.16,.33-6.25,.67-9.29,1-13.22,1.5-25.18,3.14-35.71,4.9,7.82-3.7,18-7.19,30.21-10.39,2.36-.62,4.81-1.23,7.31-1.84,3.57-.85,7.27-1.68,11.11-2.47,49.22-10.31,121.39-16.86,201.83-16.93,80.39-.07,152.53,6.33,201.77,16.53,3.87,.81,7.59,1.64,11.17,2.48,2.55,.6,5.01,1.22,7.4,1.84,12.2,3.18,22.38,6.65,30.21,10.32Z"/><g><line class="cls-3" x1="255.04" y1="80.08" x2="255.04" y2="3.5"/><path class="cls-2" d="M288.64,32.24c-1.63-1.04-3.79-.55-4.83,1.08l-28.77,45.16-28.77-45.16c-1.04-1.63-3.21-2.12-4.83-1.08-1.63,1.04-2.1,3.22-1.07,4.84l31.72,49.8c.64,1,1.76,1.62,2.95,1.62s2.31-.62,2.95-1.62l31.72-49.8c.37-.59,.55-1.24,.55-1.88,0-1.16-.57-2.29-1.62-2.96Z"/></g></svg>